<svg width="70" height="152" viewBox="0 0 70 152" fill="none" xmlns="http://www.w3.org/2000/svg">
<path fill-rule="evenodd" clip-rule="evenodd" d="M51.3981 107.553C51.4634 105.632 51.614 103.709 51.5725 101.791C51.4671 96.9455 50.979 92.1418 49.9693 87.3815C49.2274 83.8875 48.0641 80.5284 46.9973 77.1361C45.3207 71.7911 43.4801 66.4962 41.8576 61.1356C40.3316 56.0826 39.3842 50.9079 39.5756 45.5976C39.6913 42.4073 40.293 39.2806 41.3375 36.2585C41.9407 34.513 43.2293 33.2209 44.7168 32.218C47.0441 30.648 49.4737 29.224 51.8603 27.7417C52.1511 27.5603 52.4649 27.4179 52.7491 27.2292C53.2469 26.8995 53.6297 26.4843 53.5384 25.8295C53.4472 25.1687 53.8189 24.8066 54.3797 24.6709C55.4822 24.404 56.6068 23.9829 57.7107 24.0124C61.7288 24.1223 65.042 22.5397 68.0065 20.0508C69.0793 19.1504 69.7751 17.9292 69.968 16.5516C70.1483 15.2545 69.557 14.1896 68.4242 13.4816C67.4902 12.8998 66.4612 12.6881 65.3625 12.7862C64.9181 12.826 64.4715 12.8363 63.9314 12.868C63.901 12.4779 63.8668 12.1911 63.8602 11.902C63.8498 11.489 63.9106 11.0679 63.8476 10.6631C63.3891 7.71254 61.024 5.90579 58.0194 6.20741C56.6706 6.34383 55.4213 6.76049 54.333 7.60192C53.4019 8.32093 52.4449 9.00161 51.3076 9.84083C51.2713 9.25382 51.1874 8.83052 51.2297 8.41976C51.3981 6.72952 51.1222 5.11154 50.5939 3.50685C50.0205 1.76278 48.7103 0.790083 47.1086 0.156613C45.6864 -0.405324 43.8562 0.603519 43.1796 2.24656C42.9622 2.77089 42.8376 3.33135 42.6277 3.85863C42.2137 4.90433 41.8954 4.97069 40.9414 4.43825C40.0155 3.92425 39.0733 3.40657 38.0815 3.05481C35.22 2.04229 32.8787 4.55257 33.2333 6.99943C33.3386 7.72877 33.5189 8.4463 33.694 9.31501C33.1955 9.02962 32.8134 8.79806 32.4187 8.5901C31.7466 8.2376 31.0737 7.88362 30.3897 7.55988C28.4014 6.6211 26.5898 7.15576 24.9028 8.30471C23.9101 8.98022 23.5095 9.97209 23.7328 11.1793C23.902 12.0945 24.2336 12.9425 24.9465 13.5671C25.6283 14.1652 26.3605 14.7065 27.0757 15.2655C27.4229 15.5361 27.7849 15.792 28.2968 16.1689C27.825 16.4786 27.5149 16.7367 27.1625 16.9004C26.6469 17.1408 26.0838 17.281 25.5675 17.5199C23.6386 18.4144 22.2587 19.8045 21.8173 21.9306C21.4426 23.7329 22.7743 25.2484 24.6535 25.1407C25.7893 25.0758 26.9214 24.8841 28.0453 24.6968C29.3941 24.4704 30.7361 24.1857 32.0811 23.9305C32.1895 23.9099 32.3044 23.9269 32.438 23.9269C32.4958 24.0153 32.6034 24.1031 32.6079 24.196C32.7117 25.8774 33.5694 27.1923 34.6369 28.4172C35.5858 29.5027 36.5035 30.614 37.4375 31.7143C38.4042 32.8522 38.896 34.1487 38.9665 35.6538C39.0318 37.0336 38.8812 38.3521 38.5102 39.6854C38.2291 40.6958 38.1794 41.7724 38.0369 42.8203C37.4234 47.4028 37.5681 51.947 38.6979 56.4477C39.3523 59.0509 39.9599 61.6637 40.629 64.2639C40.7975 64.918 41.092 65.5434 41.3806 66.1577C41.9095 67.2897 42.3747 68.4379 42.6328 69.9475C42.3035 69.609 42.1217 69.4592 41.9845 69.2749C41.4206 68.5146 40.8338 67.7639 40.3241 66.9674C38.8122 64.6024 36.7817 62.7042 34.634 60.9587C31.6917 58.5686 29.2331 55.7493 26.8806 52.8216C26.2952 52.0908 25.8538 51.2295 25.4295 50.3859C24.0318 47.6116 22.689 44.8107 21.2876 42.0386C20.8276 41.1286 20.3001 40.2415 19.7141 39.4067C17.8438 36.7401 15.9335 34.1015 14.0357 31.454C13.9267 31.2999 13.8087 31.1458 13.67 31.0175C11.8895 29.3737 10.1624 27.6628 8.29512 26.123C7.13557 25.1636 5.80685 24.3701 4.46258 23.6791C3.16726 23.0124 1.68129 22.977 0.21386 22.8096C0.0996094 23.3937 0.512062 23.6112 0.810295 23.8546C1.51656 24.4291 2.23989 24.9858 2.97584 25.5227C3.89057 26.1879 4.56941 27.0404 5.03234 28.0558C5.48711 29.0558 5.93966 30.0602 6.3247 31.0882C8.32776 36.4451 11.0623 41.4155 14.4215 46.0386C15.5536 47.5968 16.9001 48.9899 18.5449 50.0828C19.6792 50.8372 20.7067 51.7538 21.7661 52.6166C22.7409 53.4131 23.7454 54.124 24.997 54.4787C25.4272 54.5996 25.8375 54.9883 26.1343 55.3533C28.0973 57.7743 30.2539 59.9771 32.6776 61.9705C36.3536 64.9962 39.6312 68.4084 41.983 72.6185C42.7152 73.9319 43.7279 75.0889 44.5929 76.3301C44.8288 76.6686 45.067 77.0314 45.1827 77.4164C45.5551 78.6479 45.8682 79.8964 46.2042 81.1368C46.5203 82.3034 46.78 83.4863 47.1598 84.6323C48.1079 87.4884 48.5107 90.4515 48.9351 93.408C49.5071 97.3821 49.9515 101.379 49.5828 105.392C49.1347 110.282 49.0212 115.211 48.0515 120.045C47.7192 121.706 47.4031 123.394 46.1887 124.735C45.9579 124.99 45.8637 125.425 45.8348 125.788C45.6664 127.858 44.8533 129.752 44.196 131.68C43.3525 134.154 42.5624 136.634 42.1388 139.219C41.8398 141.044 41.4993 142.861 41.0534 144.676C40.9889 143.52 40.8064 142.357 40.8843 141.211C41.0215 139.227 40.6216 137.293 40.5007 135.334C40.4688 134.807 40.3731 134.277 40.3976 133.754C40.5281 131.123 40.1305 128.554 39.5615 125.997C39.2736 124.705 39.1126 123.389 38.8337 122.097C38.232 119.32 37.6289 116.52 36.3766 113.962C34.6814 110.498 33.0241 106.979 30.1656 104.237C30.0032 104.081 29.8392 103.907 29.7346 103.709C28.325 101.023 26.5794 98.5473 24.9057 96.0237C23.7165 94.2317 23.2632 92.2111 23.4836 90.0666C23.5629 89.2856 23.56 88.5747 22.9101 87.9796C22.7172 87.8026 22.6445 87.4368 22.62 87.1485C22.4538 85.1323 22.5087 83.1397 23.3463 81.2415C23.5444 80.7924 23.7091 80.3256 23.8671 79.8602C23.9769 79.5387 24.083 79.2091 24.129 78.8736C24.2966 77.6936 24.1609 76.5255 23.1623 75.78C22.2372 75.0882 21.1325 75.3235 20.1125 75.7327C19.0085 76.1767 18.2132 76.9761 17.6413 77.9967C17.3111 78.5859 17.0077 79.1906 16.6152 79.931C16.2718 79.6456 15.9527 79.4547 15.7346 79.1833C15.0425 78.3234 14.2316 77.7947 13.0705 78.0616C11.8027 78.3514 10.8509 79.0527 10.3553 80.2651C9.8204 81.5689 9.83971 81.5992 8.45166 81.4185C6.50571 81.1678 4.90621 81.9023 3.63019 83.2488C2.66575 84.2643 2.33265 85.6367 2.76814 86.9575C3.21029 88.2901 3.00184 89.1064 1.72433 89.8048C0.776947 90.3232 0.212357 91.2642 0.0387573 92.3873C-0.143745 93.5827 0.336243 94.5193 1.09964 95.3806C1.84819 96.225 1.83633 96.2346 1.3289 97.2169C1.2421 97.3858 1.15899 97.5554 1.06848 97.7213C0.0676956 99.5863 0.684212 101.481 2.68282 102.258C3.694 102.65 4.80828 102.81 5.89068 102.981C6.86477 103.136 7.0109 103.224 6.91891 104.169C6.86179 104.771 6.77353 105.37 6.69192 105.969C6.52797 107.146 6.8544 108.228 7.3752 109.253C7.87745 110.234 8.85895 110.644 9.98735 110.358C11.1402 110.063 12.0883 109.44 12.6306 108.358C13.3785 106.869 14.081 105.361 14.788 103.855C15.11 103.175 15.3949 102.481 15.6345 101.936C16.4572 101.789 17.1175 101.567 17.7703 101.579C19.0523 101.605 20.401 101.543 21.5955 101.914C23.511 102.511 25.3004 103.49 27.187 104.192C28.8273 104.804 29.8948 105.99 30.7777 107.376C32.0789 109.421 33.3883 111.464 34.3505 113.699C34.5293 114.116 34.746 114.52 34.9069 114.944C36.2616 118.525 37.3863 122.172 38.0139 125.958C38.2803 127.561 38.5889 129.161 38.7907 130.772C39.0155 132.57 39.1371 134.381 39.3085 136.187C39.382 136.937 39.488 137.686 39.54 138.438C39.5793 138.999 39.5615 139.561 39.5556 140.125C39.5511 140.502 39.4947 140.881 39.5088 141.255C39.5778 143.03 39.7165 144.803 39.7277 146.577C39.7351 147.895 39.6045 149.215 39.4969 150.531C39.4079 151.622 39.2224 152.706 39.1601 153.799C39.1319 154.273 39.1861 154.827 39.4124 155.227C40.7299 157.56 40.4896 160.059 40.2455 162.542C40.0897 164.118 39.7944 165.688 39.4643 167.239C38.9235 169.79 38.3233 172.331 37.7068 174.867C37.5666 175.445 37.2491 175.981 37.0258 176.544C36.8863 176.893 36.7045 177.244 36.6548 177.608C36.5168 178.642 37.0443 179.075 38.0547 178.815C39.4428 178.457 39.5726 178.213 39.6972 176.794C39.8033 175.595 40.0956 174.411 40.2648 173.213C40.6988 170.106 41.0371 166.982 41.5571 163.889C41.8769 161.988 41.618 160.123 41.6313 158.24C41.6461 155.976 41.8494 153.713 41.9615 151.449C41.9919 150.844 41.9874 150.239 41.9919 149.634C42.0023 147.928 42.1425 146.246 42.5535 144.574C42.9318 143.033 43.1485 141.455 43.4363 139.892C44.1463 136.04 45.6508 132.418 46.7258 128.671C46.817 128.356 47.001 128.031 47.2295 127.795C47.8898 127.115 48.2036 126.283 48.4722 125.405C49.6428 121.556 50.6036 117.669 50.7683 113.629C50.8313 112.032 51.2572 110.604 52.4048 109.403C54.264 107.454 54.7536 104.939 55.0504 102.411C55.3011 100.263 55.0704 98.1129 54.8174 95.9625C54.5852 93.9802 54.5014 91.9729 54.4339 89.9751C54.4183 89.526 54.6795 89.0319 54.9176 88.6182C55.7826 87.1087 56.8235 85.6839 57.5483 84.1146C58.2575 82.5778 58.7427 80.9229 59.176 79.2821C59.5781 77.7482 59.785 76.1634 60.0758 74.6022C60.4906 72.3714 60.8214 70.12 61.3474 67.9165C61.6071 66.8347 62.2273 65.8399 62.6835 64.8045C62.9098 64.2905 63.2385 63.7942 63.3371 63.2566C63.4596 62.5914 62.958 62.2477 62.3356 62.5361C61.9365 62.7248 61.524 63.0014 61.2636 63.3465C60.4883 64.3694 59.7554 65.4276 59.0624 66.5065C58.0594 68.0684 57.0542 69.6325 56.1506 71.249C54.9502 73.4009 53.8537 75.6103 53.528 78.1007C53.4984 78.3256 53.4754 78.5498 53.4465 78.7762C53.1527 81.1397 52.8396 83.4988 52.5681 85.8653C52.4679 86.7643 52.4649 87.6743 52.4152 88.5821C52.2476 91.6801 52.2186 94.7715 52.7357 97.8504C53.1527 100.339 53.0347 102.828 52.5302 105.296C52.3559 106.13 52.1192 106.953 51.3981 107.553ZM43.8214 15.1969C43.9096 15.1903 43.9994 15.1851 44.0862 15.18C44.1574 15.0509 44.2813 14.9248 44.2902 14.7928C44.3948 13.2921 44.7524 11.7899 44.3904 10.2885C43.7976 7.83496 44.2138 5.48176 45.018 3.15658C45.0669 3.01425 45.1271 2.87266 45.2057 2.74287C45.5514 2.1824 45.8838 2.02976 46.429 2.38742C46.9543 2.7296 47.4603 3.1728 47.8215 3.68016C48.6821 4.88663 49.056 6.27378 48.9863 7.75531C48.8921 9.75307 48.9648 11.7641 48.4892 13.7338C48.3386 14.3555 48.3082 15.0074 48.257 15.6482C48.1962 16.396 48.4959 17.0081 49.0508 17.5855C49.4351 16.9233 49.8023 16.3488 50.1124 15.7448C51.4842 13.0804 53.3359 10.8305 55.7017 8.95882C57.2241 7.75531 59.2101 8.11519 60.3103 9.09379C61.4958 10.1447 61.5581 11.8651 60.5989 13.4285C59.5743 15.1003 57.9608 16.0487 56.3279 16.9159C54.6312 17.8178 53.1586 18.9594 51.6392 20.4313C52.1771 20.4697 52.577 20.5774 52.9397 20.5021C53.4917 20.3878 54.0362 20.1858 54.5511 19.9513C57.2597 18.7227 59.8132 17.2168 62.2696 15.5538C63.0849 15.0015 63.9759 14.6969 64.9433 14.6895C65.8907 14.6822 66.8039 14.9307 67.301 15.8053C67.8114 16.708 67.4523 17.5604 66.893 18.3385C66.8714 18.3694 66.8529 18.4041 66.8269 18.4321C64.654 20.7337 62.1969 22.4276 58.8384 22.4756C56.8984 22.5036 54.9636 22.7396 53.166 23.5795C52.5525 23.8664 51.9159 23.918 51.2727 23.7366C49.9018 23.3494 48.6576 23.6083 47.4432 24.317C46.639 24.7853 45.8014 25.2314 44.765 25.3841C44.6849 24.567 44.6307 23.8155 44.5276 23.0707C44.4082 22.2123 44.3481 21.3251 44.0766 20.511C43.3925 18.4572 40.9302 17.9203 39.3686 19.4232C38.7469 20.0206 38.3834 20.7558 38.1475 21.57C38.0703 21.8355 37.9464 22.0877 37.8084 22.4313C37.3203 22.1083 36.9404 21.8672 36.571 21.6098C36.0391 21.2337 35.4522 21.1533 34.8305 21.2927C33.0159 21.7049 31.2109 22.1607 29.3881 22.5316C28.124 22.7897 26.8413 23.0028 25.5563 23.1061C24.2373 23.2138 23.6008 22.2823 24.0132 21.0375C24.2759 20.2499 24.8709 19.7883 25.5934 19.5021C27.0067 18.9417 28.4363 18.4189 29.8666 17.9026C30.5662 17.6497 31.2651 17.7219 31.9951 17.8908C33.4737 18.233 34.9752 18.4837 36.4686 18.7559C36.5992 18.7802 36.749 18.6961 36.9961 18.6349C36.7898 18.41 36.6726 18.2146 36.5013 18.1091C35.6622 17.5914 34.8409 17.0251 33.9507 16.6114C31.5989 15.517 29.4067 14.163 27.2782 12.6977C26.8494 12.4012 26.4651 12.0126 26.1268 11.6107C25.6268 11.0178 25.181 10.329 25.6038 9.54806C25.9993 8.81872 26.7797 8.82979 27.523 8.83716C28.8362 8.8497 29.9727 9.34084 31.0166 10.0731C32.5686 11.1638 34.1146 12.2633 35.6399 13.3902C36.2676 13.854 36.8848 14.18 37.715 14.1674C38.1586 14.1608 38.6223 14.4632 39.0496 14.68C39.5192 14.9182 39.9584 15.2205 40.4087 15.4949C40.4673 15.4277 40.5237 15.3628 40.5801 15.2965C39.9027 14.1704 39.2692 13.0156 38.5377 11.9263C37.6942 10.669 36.7149 9.49938 35.8974 8.22581C35.545 7.67936 35.2957 6.97289 35.2742 6.32909C35.2208 4.80773 36.2216 4.1831 37.5836 4.84901C40.0066 6.03189 41.7478 7.8239 42.0994 10.579C42.319 12.2936 43.374 13.6099 43.8214 15.1969ZM14.0447 97.6004C13.4363 97.5886 13.1017 97.517 12.7983 97.5871C11.6076 97.8636 10.4866 98.2442 9.59341 99.1859C8.26767 100.58 6.57915 101.045 4.69034 100.7C3.60349 100.5 2.75998 99.5893 2.76591 98.7279C2.77185 97.9042 3.40762 97.3194 4.65026 97.0687C5.4693 96.9027 6.30982 96.8393 7.12589 96.6609C9.31813 96.1815 11.4948 95.6063 13.7724 96.1771C13.9653 96.2243 14.3184 95.9809 14.4549 95.7766C14.5246 95.6727 14.3362 95.2523 14.1633 95.1601C13.5342 94.8187 12.8858 94.4802 12.2018 94.2818C10.7418 93.8556 9.26101 94.0857 7.78839 94.2936C6.96045 94.4116 6.1303 94.523 5.29791 94.5871C4.29193 94.6675 3.43063 94.2789 2.69469 93.6263C2.16351 93.155 2.02402 92.5591 2.22952 91.8704C2.4276 91.2096 2.95879 90.9832 3.54116 90.9744C4.25559 90.9641 4.98708 91.0245 5.6837 91.1801C6.37142 91.3328 7.00349 91.3342 7.69715 91.1845C9.18609 90.863 10.6862 90.6572 12.1506 91.4021C12.6173 91.641 13.1707 91.8829 13.8903 91.5031C12.1484 89.8815 10.4042 88.5533 8.03765 88.3372C7.78468 88.3144 7.50574 88.3874 7.26463 88.481C6.47008 88.7863 6.13105 88.7443 5.58132 88.1595C4.91808 87.4567 4.72369 86.5681 4.67399 85.6507C4.60055 84.3455 5.52569 83.3632 6.84252 83.4384C8.07478 83.5107 9.25435 83.8558 10.1758 84.7407C11.5957 86.105 12.9652 87.5216 14.406 88.863C15.1775 89.5821 16.0299 90.2244 16.8912 90.8394C17.1902 91.0525 17.6227 91.0872 18.1301 91.2443C18.0382 90.9227 18.0285 90.7679 17.9565 90.6536C16.6137 88.5467 15.2517 86.4509 13.9208 84.3381C13.4393 83.5704 12.9845 82.7784 12.6009 81.9583C12.2619 81.2356 12.3435 80.5395 12.7197 80.3971C13.3451 80.1567 13.7108 80.6552 14.0684 81.0151C14.9972 81.9414 15.633 83.0645 16.0433 84.3004C16.6531 86.1441 17.9024 87.5438 19.2801 89.1212C19.2697 88.7178 19.2741 88.5061 19.2556 88.296C19.1102 86.7532 18.9239 85.2119 18.8201 83.6684C18.711 82.0379 18.8075 80.4119 19.3105 78.8433C19.542 78.1273 19.9811 77.8293 20.5435 77.8684C21.2127 77.9134 21.7616 78.3795 21.8284 79.097C21.8707 79.5321 21.8217 80.0218 21.6585 80.4222C20.7252 82.7112 20.3432 85.0704 20.5769 87.529C20.5954 87.7163 20.568 87.9066 20.5717 88.0954C20.5813 88.8432 20.3558 89.4914 19.8802 90.0872C19.5323 90.5267 19.1777 91.0149 19.0182 91.5393C18.6888 92.6196 18.0271 93.318 17.1027 93.9574C15.3927 95.1402 14.2071 96.6623 14.8132 98.9499C14.9683 99.5377 14.7947 100.059 14.4267 100.544C14.1789 100.872 13.9756 101.244 13.8102 101.623C13.1752 103.08 12.5802 104.555 11.9325 106.004C11.6869 106.554 11.3568 107.07 11.0326 107.58C10.7671 108.001 10.4599 108.427 9.87233 108.348C9.22097 108.262 8.89901 107.78 8.73579 107.212C8.63267 106.855 8.56068 106.459 8.60742 106.098C8.70906 105.312 8.87598 104.532 9.05552 103.76C9.37378 102.389 10.0764 101.254 11.1818 100.354C11.8843 99.7795 12.5483 99.1512 13.216 98.5318C13.4467 98.3172 13.6389 98.0598 14.0447 97.6004ZM23.3344 51.0186C23.2743 51.0717 23.215 51.1262 23.1534 51.1786C22.8225 50.9655 22.4716 50.7767 22.1608 50.5333C19.4537 48.419 17.0782 45.9847 15.1196 43.1618C12.6692 39.6242 10.813 35.7659 8.99543 31.8913C8.68607 31.2313 8.554 30.4902 8.31215 29.6893C8.61632 29.7284 8.75209 29.707 8.82554 29.7645C9.21576 30.0632 9.58967 30.3854 9.97322 30.6937C12.5794 32.7976 14.4601 35.5144 16.3497 38.215C17.3698 39.6714 18.378 41.15 19.237 42.7046C20.4471 44.8896 21.5183 47.1507 22.6348 49.3888C22.8982 49.9161 23.1037 50.4736 23.3344 51.0186ZM35.2245 23.9291C35.5242 24.123 35.7037 24.1982 35.8261 24.3258C36.1911 24.71 36.5302 25.1178 36.8885 25.5094C37.4716 26.1517 38.1452 26.4327 39.0296 26.1348C39.9428 25.8236 40.5749 25.3177 40.5786 24.2838C40.5808 23.682 40.5593 23.0781 40.5304 22.4763C40.4992 21.8229 40.6498 21.2403 41.0475 20.7035C41.8791 21.3583 42.0727 21.6585 42.1855 22.7573C42.3302 24.1864 42.3932 25.6208 42.546 27.0477C42.6455 27.9718 43.0542 28.269 43.943 27.9851C44.8407 27.6997 45.7012 27.2867 46.5529 26.873C47.303 26.5094 48.004 26.0448 48.7504 25.6739C49.0427 25.5293 49.424 25.4113 49.7222 25.4748C50.0494 25.5478 50.4367 25.7882 50.5798 26.0662C50.6592 26.2196 50.3142 26.6178 50.1154 26.87C50.0049 27.0101 49.8083 27.0861 49.6414 27.179C46.8519 28.7395 44.2034 30.5012 41.7559 32.5572C41.5675 32.7158 41.3427 32.833 41.1402 32.9651C41.0015 32.8301 40.8843 32.7652 40.8464 32.6708C40.198 31.0115 38.994 29.7387 37.8722 28.4083C37.1652 27.5684 36.4553 26.7299 35.7816 25.8634C35.3907 25.3634 35.042 24.8192 35.2245 23.9291ZM25.0504 100.363C22.2758 99.6859 19.6844 99.1704 16.9231 99.7581C16.8512 98.8894 16.774 98.1807 16.7414 97.4706C16.7021 96.6771 17.0893 96.1284 17.7607 95.7021C18.3957 95.2958 19.039 94.8652 19.559 94.3298C20.1926 93.6771 20.7015 92.905 21.272 92.1749C21.3091 92.2524 21.3796 92.346 21.3959 92.4485C21.6489 94.0864 22.2654 95.5466 23.301 96.8747C24.057 97.8437 24.744 98.8975 25.0504 100.363ZM58.8681 70.3862C58.8555 70.8014 58.8673 70.9423 58.8451 71.0765C58.4615 73.384 58.0505 75.687 57.6922 78.0004C57.3895 79.951 56.9147 81.8492 56.0986 83.6507C55.704 84.5195 55.31 85.3992 54.5251 86.2834C54.5066 85.8587 54.465 85.6441 54.4903 85.4368C54.7618 83.1537 55.017 80.8684 55.3382 78.5911C55.4755 77.6243 55.7277 76.6701 55.977 75.7246C56.4785 73.8117 57.1959 72.0042 58.8681 70.3862Z" fill="white" fill-opacity="0.2"/>
</svg>
