<svg width="24" height="24" viewBox="0 0 24 24" fill="none" xmlns="http://www.w3.org/2000/svg">
<path d="M0.132813 6.07358C0.132813 4.98986 1.01134 4.11133 2.09506 4.11133V4.11133C3.17878 4.11133 4.05731 4.98986 4.05731 6.07358L4.05731 21.2181H3.30073C1.55114 21.2181 0.132813 19.7998 0.132813 18.0502L0.132813 6.07358Z" fill="#0094FF"/>
<path d="M19.1514 6.07358C19.1514 4.98986 20.0299 4.11133 21.1136 4.11133V4.11133C22.1973 4.11133 23.0759 4.98986 23.0759 6.07358V18.0502C23.0759 19.7998 21.6575 21.2181 19.9079 21.2181H19.1514V6.07358Z" fill="#03A400"/>
<path d="M19.9369 4.08384C20.7454 3.37557 21.9742 3.45348 22.6867 4.2582V4.2582C23.4091 5.07403 23.3244 6.32317 22.4985 7.03401L17.9693 10.9321L17.228 6.45688L19.9369 4.08384Z" fill="#FFE600"/>
<path fill-rule="evenodd" clip-rule="evenodd" d="M0.333961 4.87564C-0.276458 5.82612 -0.0265334 7.13298 0.891467 7.79085L12.4296 16.0595L12.4348 16.0636L17.9878 10.9116L17.2694 6.41191L12.2731 10.9833L3.09056 4.35328C2.17702 3.69368 0.942849 3.92755 0.333961 4.87564Z" fill="#FF0909" fill-opacity="0.86"/>
</svg>
