<svg width="1003" height="220" viewBox="0 0 1003 220" fill="none" xmlns="http://www.w3.org/2000/svg">
<path fill-rule="evenodd" clip-rule="evenodd" d="M890.017 107.677C891.338 106.264 892.6 104.789 893.994 103.454C897.516 100.081 901.279 97.0087 905.38 94.3357C908.39 92.3743 911.603 90.8069 914.771 89.1476C919.759 86.5302 924.828 84.0644 929.789 81.3976C934.464 78.8815 938.815 75.8696 942.458 71.9559C944.646 69.6043 946.446 66.9541 947.857 64.0653C948.673 62.3969 948.681 60.5664 948.343 58.801C947.814 56.0383 947.109 53.3071 946.476 50.5649C946.4 50.2302 946.279 49.907 946.212 49.5717C946.095 48.9852 946.12 48.4191 946.65 48.0177C947.185 47.6121 947.18 47.0917 946.88 46.5985C946.29 45.6291 945.794 44.5342 944.993 43.7746C942.073 41.0116 940.857 37.5428 940.531 33.6758C940.413 32.2766 940.79 30.9156 941.634 29.7991C942.429 28.7487 943.605 28.4091 944.91 28.7064C945.984 28.9529 946.862 29.5299 947.57 30.3766C947.855 30.7192 948.164 31.0423 948.523 31.4468C948.822 31.1907 949.051 31.0107 949.261 30.8098C949.562 30.5233 949.819 30.1807 950.151 29.9372C952.575 28.1621 955.533 28.549 957.443 30.8881C958.299 31.9389 958.886 33.1188 959.057 34.487C959.204 35.6569 959.396 36.818 959.603 38.2193C960.047 37.8273 960.407 37.5854 960.67 37.2632C961.753 35.9416 963.099 34.9855 964.615 34.2173C966.261 33.3819 967.88 33.6162 969.463 34.2981C970.868 34.9039 971.445 36.9159 970.754 38.5633C970.535 39.0901 970.224 39.577 969.997 40.1006C969.546 41.1373 969.724 41.4096 970.777 41.7054C971.798 41.9943 972.832 42.2922 973.784 42.7433C976.528 44.0462 976.397 47.4879 974.406 48.9781C973.812 49.4225 973.174 49.8056 972.432 50.2998C972.988 50.4493 973.423 50.5547 973.85 50.6858C974.576 50.9103 975.304 51.1342 976.018 51.3876C978.091 52.1255 978.992 53.787 979.367 55.7974C979.589 56.9799 979.166 57.9689 978.149 58.6699C977.379 59.2014 976.541 59.5703 975.592 59.5106C974.685 59.4541 973.782 59.3214 972.878 59.2134C972.44 59.1605 972.002 59.0866 971.372 58.9927C971.485 59.5467 971.521 59.9497 971.654 60.3153C971.847 60.851 972.146 61.3488 972.341 61.8839C973.068 63.8843 973.055 65.8491 971.854 67.6739C970.837 69.2212 968.817 69.3578 967.565 67.9524C966.808 67.1031 966.144 66.1662 965.482 65.2381C964.69 64.1234 963.943 62.9718 963.174 61.8392C963.112 61.7479 963.019 61.6787 962.924 61.5843C962.82 61.6063 962.682 61.5927 962.612 61.6557C961.343 62.7785 959.801 63.1076 958.174 63.2243C956.731 63.3257 955.291 63.4675 953.848 63.5899C952.355 63.7159 951.085 64.2906 949.964 65.3116C948.936 66.2472 948.105 67.2918 947.418 68.5028C946.898 69.4204 946.167 70.2216 945.522 71.0679C942.696 74.7622 939.36 77.8931 935.359 80.2963C933.044 81.6858 930.756 83.1152 928.432 84.4921C927.848 84.8384 927.195 85.0751 926.554 85.3081C925.374 85.7395 924.228 86.2275 922.972 87.119C923.445 87.1111 923.68 87.1331 923.909 87.099C924.848 86.9567 925.797 86.8375 926.724 86.6312C929.476 86.0176 932.263 86.1029 935.023 86.3796C938.804 86.7596 942.549 86.4921 946.295 86.0726C947.229 85.9665 948.154 85.6658 949.054 85.3656C952.017 84.38 954.959 83.3367 957.922 82.3553C958.895 82.0331 959.899 81.7749 960.907 81.5953C964.127 81.0205 967.355 80.494 970.581 79.9522C970.768 79.9196 970.961 79.8934 971.15 79.9002C973.579 79.9897 976.017 79.9936 978.433 80.2184C979.936 80.3557 981.44 80.7307 982.882 81.1896C984.272 81.6312 985.348 82.6567 986.505 83.5753C986.17 84.0716 985.724 83.9348 985.34 83.897C984.432 83.8064 983.524 83.691 982.622 83.5526C981.501 83.3791 980.415 83.5056 979.365 83.9008C978.332 84.2907 977.297 84.6853 976.294 85.1445C971.066 87.5395 965.596 89.1423 959.931 90.0563C958.022 90.3645 956.079 90.4035 954.138 90.0181C952.799 89.7528 951.421 89.6784 950.058 89.5432C948.802 89.4205 947.585 89.2161 946.448 88.5835C946.058 88.3653 945.491 88.3517 945.022 88.4015C941.911 88.7361 938.819 88.7784 935.687 88.4828C930.935 88.0363 926.189 88.1465 921.531 89.479C920.079 89.8957 918.539 90.0029 917.044 90.2743C916.637 90.3483 916.21 90.4381 915.855 90.6301C914.715 91.243 913.605 91.91 912.485 92.5549C911.432 93.1615 910.406 93.8194 909.322 94.3662C906.62 95.728 904.227 97.5514 901.823 99.3548C898.591 101.778 895.433 104.308 892.839 107.423C889.677 111.219 886.249 114.807 883.495 118.932C882.549 120.349 881.571 121.773 881.476 123.586C881.458 123.931 881.215 124.307 880.977 124.585C879.623 126.177 878.851 128.1 877.944 129.936C876.78 132.293 875.574 134.616 874.034 136.755C872.947 138.265 871.895 139.799 870.919 141.405C871.787 140.628 872.744 139.93 873.504 139.059C874.819 137.55 876.478 136.457 877.957 135.149C878.354 134.797 878.799 134.487 879.154 134.098C880.934 132.133 883.043 130.587 885.264 129.17C886.387 128.455 887.437 127.632 888.554 126.91C890.955 125.359 893.374 123.793 896.079 122.859C899.742 121.593 903.418 120.262 907.391 120.331C907.616 120.336 907.856 120.328 908.071 120.261C910.979 119.346 913.974 118.819 916.953 118.207C919.069 117.773 920.828 116.656 922.198 114.974C922.697 114.363 923.205 113.859 924.088 113.895C924.35 113.905 924.662 113.697 924.884 113.509C926.436 112.192 927.815 110.735 928.574 108.792C928.753 108.333 928.969 107.884 929.188 107.441C929.339 107.135 929.499 106.825 929.705 106.554C930.426 105.596 931.353 104.861 932.59 105.037C933.736 105.199 934.35 106.147 934.78 107.16C935.244 108.256 935.238 109.387 934.916 110.518C934.731 111.17 934.515 111.815 934.266 112.62C934.712 112.659 935.073 112.749 935.42 112.71C936.522 112.588 937.471 112.785 938.102 113.796C938.792 114.899 938.967 116.071 938.454 117.284C937.905 118.59 937.87 118.597 938.98 119.45C940.534 120.648 941.143 122.302 941.087 124.162C941.046 125.566 940.305 126.778 939.058 127.41C937.797 128.046 937.363 128.774 937.77 130.174C938.071 131.213 937.801 132.282 937.124 133.204C936.403 134.183 935.397 134.51 934.244 134.583C933.114 134.655 933.116 134.67 932.776 135.727C932.717 135.909 932.655 136.088 932.601 136.271C931.982 138.305 930.198 139.217 928.232 138.357C927.238 137.921 926.336 137.246 925.449 136.603C924.65 136.025 924.484 135.984 923.877 136.721C923.489 137.19 923.125 137.679 922.756 138.162C922.035 139.116 921.034 139.655 919.937 140.016C918.884 140.358 917.898 139.957 917.304 138.955C916.698 137.93 916.471 136.816 916.857 135.663C917.388 134.074 917.964 132.505 918.536 130.933C918.792 130.222 919.084 129.527 919.303 128.969C918.825 128.283 918.516 127.658 918.046 127.205C917.122 126.317 916.212 125.319 915.103 124.739C913.324 123.809 911.362 123.241 909.529 122.406C907.933 121.681 906.335 121.77 904.724 122.132C902.349 122.667 899.97 123.195 897.699 124.105C897.276 124.275 896.835 124.409 896.419 124.597C892.914 126.187 889.524 127.987 886.387 130.236C885.058 131.189 883.701 132.109 882.412 133.113C880.973 134.233 879.599 135.435 878.193 136.599C877.607 137.081 877 137.539 876.428 138.037C876.001 138.408 875.613 138.821 875.217 139.226C874.951 139.498 874.722 139.807 874.445 140.063C873.134 141.277 871.774 142.441 870.504 143.695C869.561 144.628 868.715 145.659 867.854 146.671C867.141 147.51 866.501 148.413 865.767 149.235C865.449 149.592 865.018 149.948 864.573 150.073C861.981 150.801 860.373 152.749 858.779 154.688C857.767 155.92 856.859 157.246 855.989 158.583C854.557 160.78 853.173 163.012 851.804 165.253C851.493 165.763 851.336 166.369 851.093 166.927C850.944 167.274 850.823 167.652 850.599 167.946C849.96 168.78 849.279 168.715 848.75 167.815C848.023 166.579 848.105 166.314 849.026 165.216C849.805 164.288 850.44 163.239 851.173 162.267C853.077 159.749 855.06 157.287 856.893 154.719C858.02 153.14 859.53 151.996 860.86 150.647C862.46 149.026 863.927 147.272 865.458 145.582C865.867 145.13 866.301 144.703 866.728 144.269C867.934 143.048 869.032 141.752 869.931 140.272C870.76 138.908 871.729 137.632 872.638 136.316C874.877 133.074 876.39 129.432 878.296 126.007C878.456 125.718 878.557 125.356 878.563 125.027C878.58 124.076 878.95 123.263 879.385 122.448C881.295 118.882 883.381 115.437 886.14 112.446C887.232 111.265 887.946 109.948 887.989 108.282C888.061 105.581 889.504 103.445 891.094 101.436C892.444 99.7309 894.137 98.364 895.846 97.0129C897.421 95.7667 898.908 94.3977 900.377 93.0241C900.708 92.7156 900.875 92.1794 901.001 91.7166C901.463 90.0309 901.741 88.2812 902.345 86.6521C902.937 85.0572 903.771 83.5367 904.632 82.0629C905.439 80.6872 906.421 79.4132 907.326 78.0968C908.62 76.2164 909.988 74.3805 911.183 72.4408C911.77 71.4875 912.039 70.3411 912.453 69.2818C912.659 68.7561 912.779 68.1706 913.092 67.7183C913.479 67.1585 914.078 67.2686 914.313 67.9139C914.461 68.3304 914.556 68.8188 914.494 69.2485C914.315 70.5245 914.08 71.7957 913.802 73.0533C913.4 74.8739 912.998 76.6975 912.487 78.4866C911.805 80.8664 911.008 83.2138 909.467 85.216C909.328 85.397 909.184 85.5728 909.044 85.7543C907.57 87.6437 906.113 89.5436 904.621 91.4193C904.052 92.1297 903.407 92.7793 902.796 93.4603C900.71 95.7831 898.531 98.0031 895.975 99.8281C893.909 101.304 892.222 103.158 890.823 105.271C890.353 105.987 889.934 106.741 890.017 107.677ZM961.086 47.3237C961.028 47.2565 960.969 47.1894 960.911 47.1243C960.952 46.9822 960.955 46.8048 961.042 46.7046C962.036 45.5629 962.852 44.2412 964.176 43.429C966.341 42.1025 967.721 40.1339 968.807 37.9109C968.873 37.775 968.932 37.6317 968.968 37.4838C969.123 36.8405 968.996 36.4969 968.356 36.3658C967.741 36.2379 967.068 36.1954 966.452 36.301C964.985 36.5508 963.734 37.2734 962.729 38.3768C961.374 39.8649 959.892 41.2443 958.827 42.982C958.491 43.5308 958.048 44.0162 957.629 44.5083C957.14 45.0834 956.492 45.3069 955.689 45.3254C955.888 44.5825 956.037 43.9141 956.248 43.2651C957.174 40.3994 957.465 37.4892 957.124 34.4846C956.904 32.5518 955.243 31.4036 953.769 31.3219C952.183 31.2313 950.915 32.4113 950.481 34.202C950.016 36.1159 950.482 37.9316 951.02 39.7033C951.578 41.5447 951.807 43.3983 951.834 45.5199C951.426 45.1669 951.067 44.9607 950.864 44.6507C950.555 44.1791 950.314 43.6502 950.116 43.1193C949.075 40.3299 948.341 37.4529 947.787 34.5328C947.604 33.5633 947.191 32.7165 946.512 32.0272C945.847 31.3521 945.024 30.8831 944.051 31.154C943.048 31.4353 942.695 32.2957 942.537 33.2448C942.53 33.282 942.519 33.3198 942.517 33.3581C942.416 36.5322 942.948 39.4749 945.289 41.8838C946.641 43.2755 947.841 44.8115 948.514 46.6802C948.744 47.3182 949.157 47.805 949.741 48.1307C950.986 48.8247 951.682 49.8886 952.036 51.2516C952.272 52.1534 952.547 53.0631 953.171 53.9046C953.809 53.3799 954.382 52.8835 954.985 52.4265C955.68 51.9002 956.354 51.3115 957.125 50.9242C959.07 49.9466 961.193 51.3057 961.228 53.4793C961.242 54.3439 960.976 55.1241 960.564 55.8701C960.429 56.1136 960.338 56.3806 960.191 56.7227C960.766 56.8381 961.206 56.9351 961.65 57.0132C962.294 57.1218 962.766 57.4795 963.107 58.0183C964.096 59.5947 965.048 61.1953 966.073 62.7481C966.784 63.8257 967.539 64.8843 968.374 65.8664C969.23 66.8757 970.343 66.6631 970.937 65.4857C971.312 64.7396 971.219 63.9905 970.912 63.2759C970.312 61.8778 969.673 60.495 969.029 59.1163C968.714 58.4416 968.168 57.9989 967.532 57.6028C966.243 56.8008 965.003 55.9174 963.753 55.055C963.644 54.98 963.597 54.8142 963.466 54.596C963.772 54.5818 963.994 54.5257 964.19 54.5718C965.152 54.7968 966.136 54.9745 967.059 55.3097C969.501 56.194 972.015 56.7808 974.562 57.2432C975.076 57.3355 975.625 57.3308 976.15 57.284C976.925 57.2157 977.73 57.0409 977.987 56.1863C978.226 55.3877 977.667 54.8438 977.136 54.3234C976.198 53.4038 975.045 52.9495 973.786 52.7325C971.913 52.4111 970.037 52.1001 968.157 51.8233C967.383 51.7096 966.715 51.505 966.137 50.9091C965.828 50.5907 965.285 50.4779 964.828 50.33C964.327 50.1674 963.801 50.072 963.287 49.9488C963.294 49.8596 963.3 49.7735 963.307 49.6864C964.587 49.3642 965.857 48.9905 967.149 48.7328C968.64 48.4346 970.165 48.2949 971.649 47.9669C972.287 47.8272 972.966 47.5009 973.439 47.058C974.56 46.0133 974.296 44.8612 972.859 44.3719C970.305 43.5002 967.798 43.544 965.589 45.2556C964.214 46.3203 962.532 46.5109 961.086 47.3237ZM923.512 127.009C923.95 127.431 924.238 127.616 924.402 127.881C925.048 128.92 925.569 129.983 925.531 131.285C925.476 133.214 926.34 134.739 927.921 135.829C928.831 136.455 930.076 136.404 930.685 135.786C931.266 135.196 931.233 134.331 930.533 133.273C930.072 132.576 929.522 131.937 929.072 131.233C927.863 129.342 926.733 127.393 924.717 126.189C924.547 126.086 924.47 125.663 924.519 125.421C924.544 125.298 924.976 125.132 925.164 125.189C925.852 125.391 926.551 125.608 927.176 125.951C928.511 126.68 929.395 127.891 930.288 129.08C930.79 129.749 931.297 130.416 931.84 131.05C932.494 131.818 933.38 132.151 934.365 132.207C935.076 132.247 935.598 131.922 935.943 131.287C936.273 130.676 936.059 130.14 935.653 129.722C935.155 129.209 934.595 128.735 933.992 128.353C933.397 127.975 932.949 127.529 932.565 126.932C931.741 125.651 930.826 124.444 929.261 123.938C928.761 123.778 928.197 123.559 927.959 122.78C930.344 122.858 932.523 123.146 934.35 124.666C934.545 124.828 934.69 125.078 934.794 125.315C935.139 126.094 935.408 126.304 936.213 126.276C937.182 126.245 937.952 125.75 938.64 125.133C939.62 124.256 939.665 122.903 938.68 122.025C937.758 121.205 936.678 120.617 935.397 120.595C933.422 120.562 931.446 120.601 929.473 120.537C928.416 120.503 927.356 120.357 926.309 120.186C925.946 120.126 925.616 119.845 925.145 119.598C925.439 119.434 925.556 119.331 925.688 119.3C928.137 118.751 930.591 118.223 933.035 117.66C933.922 117.455 934.807 117.213 935.662 116.9C936.416 116.626 936.853 116.073 936.689 115.706C936.417 115.092 935.804 115.189 935.295 115.192C933.979 115.194 932.731 115.544 931.561 116.133C929.818 117.013 927.939 117.126 925.843 117.274C926.137 116.994 926.284 116.841 926.447 116.704C927.647 115.709 928.876 114.744 930.047 113.72C931.285 112.637 932.373 111.412 933.134 109.94C933.479 109.267 933.381 108.744 932.955 108.374C932.45 107.933 931.73 107.877 931.173 108.34C930.833 108.62 930.519 109.003 930.35 109.403C929.381 111.691 927.973 113.64 926.058 115.224C925.912 115.344 925.796 115.499 925.659 115.631C925.12 116.156 924.818 116.777 924.731 117.537C924.664 118.096 924.567 118.694 924.307 119.18C923.771 120.181 923.742 121.146 923.941 122.255C924.309 124.305 924.064 126.227 922.008 127.426C921.48 127.734 921.232 128.228 921.147 128.833C921.089 129.242 920.968 129.65 920.815 130.037C920.228 131.522 919.599 132.992 919.026 134.482C918.808 135.047 918.675 135.647 918.541 136.239C918.429 136.726 918.343 137.247 918.815 137.606C919.337 138.005 919.907 137.89 920.427 137.601C920.754 137.42 921.086 137.19 921.31 136.9C921.798 136.269 922.234 135.596 922.657 134.92C923.407 133.719 923.718 132.415 923.577 130.993C923.489 130.087 923.466 129.17 923.435 128.258C923.424 127.942 923.472 127.623 923.512 127.009ZM950.086 87.2972C950.09 87.3775 950.093 87.4582 950.1 87.539C950.485 87.6214 950.868 87.7352 951.261 87.7818C954.679 88.1917 958.091 88.1395 961.484 87.5158C965.734 86.7316 969.792 85.2989 973.834 83.8274C974.522 83.5765 975.143 83.1426 975.884 82.7438C975.641 82.5565 975.56 82.4453 975.467 82.4343C974.979 82.3709 974.485 82.3358 973.995 82.2839C970.655 81.938 967.392 82.5411 964.134 83.1264C962.377 83.4414 960.612 83.7805 958.898 84.2791C956.488 84.9781 954.122 85.8294 951.74 86.6323C951.178 86.8212 950.636 87.0726 950.086 87.2972ZM960.952 59.6155C960.602 59.5416 960.422 59.4681 960.244 59.4724C959.713 59.4876 959.183 59.538 958.651 59.5633C957.782 59.608 957.106 59.3316 956.692 58.4943C956.268 57.6271 956.181 56.8202 956.914 56.0819C957.34 55.6522 957.785 55.2377 958.234 54.83C958.721 54.3872 959.029 53.8662 959.13 53.203C958.076 53.0809 957.725 53.1575 956.864 53.8596C955.745 54.7741 954.679 55.7501 953.556 56.6573C952.828 57.2445 952.328 57.1669 951.901 56.3364C951.47 55.4986 951.155 54.5962 950.847 53.6997C950.576 52.9106 950.41 52.0844 950.147 51.2927C950.043 50.9832 949.857 50.6296 949.601 50.4638C949.318 50.2844 948.873 50.1816 948.574 50.2782C948.408 50.3312 948.369 50.8585 948.33 51.1785C948.309 51.3564 948.394 51.5494 948.446 51.7336C949.308 54.8163 949.927 57.9425 950.195 61.136C950.215 61.382 950.291 61.6244 950.34 61.8616C950.534 61.8636 950.663 61.9003 950.757 61.8599C952.396 61.1378 954.153 61.0836 955.893 60.9303C956.991 60.8326 958.089 60.738 959.182 60.5978C959.814 60.5185 960.448 60.3779 960.952 59.6155ZM913.764 121.192C916.207 122.672 918.407 124.138 919.941 126.509C920.61 125.942 921.169 125.492 921.697 125.01C922.289 124.473 922.406 123.809 922.235 123.031C922.075 122.293 921.926 121.531 921.939 120.783C921.956 119.87 922.145 118.961 922.261 118.038C922.18 118.067 922.063 118.084 921.979 118.145C920.635 119.132 919.16 119.735 917.483 119.947C916.259 120.102 915.023 120.366 913.764 121.192ZM911.179 75.9512C910.893 76.2555 910.784 76.3473 910.705 76.4586C909.334 78.3716 907.986 80.3008 906.593 82.2001C905.42 83.802 904.405 85.4883 903.7 87.3471C903.361 88.2443 903.014 89.1488 902.94 90.333C903.255 90.0438 903.437 89.9205 903.567 89.7553C904.999 87.9388 906.445 86.1323 907.838 84.2849C908.428 83.5 908.929 82.6427 909.425 81.7938C910.432 80.0781 911.211 78.2848 911.179 75.9512Z" fill="#88A7B6"/>
<path fill-rule="evenodd" clip-rule="evenodd" d="M112.867 110.289C111.547 108.876 110.285 107.401 108.891 106.065C105.369 102.693 101.606 99.62 97.505 96.947C94.4945 94.9856 91.2819 93.4182 88.114 91.7589C83.1254 89.1415 78.0566 86.6757 73.0953 84.0089C68.421 81.4928 64.0693 78.4809 60.4264 74.5673C58.2384 72.2156 56.4391 69.5655 55.0275 66.6766C54.2121 65.0082 54.204 63.1777 54.5422 61.4123C55.0708 58.6496 55.7756 55.9184 56.4086 53.1762C56.4851 52.8415 56.6057 52.5183 56.6723 52.1831C56.7898 51.5965 56.7651 51.0305 56.2346 50.6291C55.7 50.2235 55.7052 49.703 56.0052 49.2099C56.5948 48.2404 57.0905 47.1455 57.892 46.3859C60.8114 43.623 62.0282 40.1542 62.3536 36.2871C62.4715 34.8879 62.0947 33.5269 61.2509 32.4104C60.4555 31.36 59.2797 31.0204 57.975 31.3177C56.9005 31.5642 56.0223 32.1412 55.3152 32.9879C55.0293 33.3305 54.7208 33.6536 54.3615 34.0581C54.0624 33.802 53.8342 33.6221 53.6238 33.4211C53.3226 33.1346 53.066 32.792 52.7334 32.5485C50.3099 30.7734 47.352 31.1603 45.4421 33.4995C44.5854 34.5502 43.9985 35.7301 43.8276 37.0983C43.6808 38.2683 43.4884 39.4293 43.2813 40.8306C42.8379 40.4386 42.4775 40.1967 42.2151 39.8746C41.1316 38.5529 39.7853 37.5968 38.27 36.8286C36.6236 35.9932 35.0051 36.2276 33.4218 36.9094C32.0164 37.5152 31.44 39.5272 32.1306 41.1746C32.35 41.7014 32.6606 42.1883 32.8873 42.7119C33.3386 43.7486 33.1608 44.0209 32.1073 44.3167C31.0869 44.6057 30.0524 44.9036 29.1007 45.3546C26.357 46.6576 26.4875 50.0992 28.4792 51.5894C29.0726 52.0338 29.7106 52.4169 30.4525 52.9112C29.8969 53.0606 29.462 53.1661 29.0349 53.2972C28.3088 53.5216 27.5812 53.7456 26.8672 53.9989C24.7934 54.7369 23.8927 56.3983 23.5173 58.4087C23.296 59.5912 23.7185 60.5802 24.7353 61.2812C25.506 61.8128 26.3439 62.1817 27.2925 62.122C28.2001 62.0654 29.103 61.9328 30.0064 61.8248C30.4445 61.7718 30.8825 61.6979 31.5126 61.6041C31.3993 62.1581 31.3637 62.561 31.231 62.9267C31.0375 63.4623 30.739 63.9601 30.5439 64.4952C29.8164 66.4956 29.8298 68.4604 31.0303 70.2852C32.0478 71.8325 34.0676 71.9691 35.3198 70.5637C36.0768 69.7144 36.7409 68.7775 37.4024 67.8495C38.195 66.7347 38.9414 65.5832 39.7109 64.4506C39.7728 64.3593 39.8662 64.29 39.9606 64.1956C40.0645 64.2177 40.203 64.204 40.2723 64.267C41.542 65.3899 43.084 65.719 44.7104 65.8356C46.1537 65.937 47.5933 66.0788 49.0366 66.2012C50.5297 66.3273 51.8 66.9019 52.9207 67.923C53.9486 68.8585 54.7802 69.9032 55.4666 71.1141C55.9866 72.0317 56.7175 72.8329 57.3624 73.6792C60.189 77.3735 63.5245 80.5044 67.5256 82.9077C69.8405 84.2972 72.1291 85.7265 74.4524 87.1034C75.0368 87.4497 75.69 87.6864 76.3312 87.9194C77.5106 88.3508 78.6565 88.8389 79.9131 89.7304C79.4394 89.7224 79.2043 89.7444 78.9761 89.7103C78.0364 89.568 77.0874 89.4488 76.1603 89.2426C73.4085 88.629 70.6221 88.7142 67.8615 88.9909C64.0805 89.3709 60.3361 89.1035 56.5896 88.6839C55.6557 88.5778 54.7307 88.2771 53.8304 87.9769C50.8682 86.9913 47.9259 85.948 44.9626 84.9666C43.9899 84.6444 42.9857 84.3862 41.9774 84.2067C38.7576 83.6319 35.5294 83.1053 32.3039 82.5635C32.1171 82.531 31.924 82.5047 31.7346 82.5115C29.3061 82.601 26.8675 82.6049 24.4516 82.8297C22.949 82.967 21.4449 83.342 20.0027 83.8009C18.6125 84.2425 17.5366 85.2681 16.3798 86.1866C16.7146 86.6829 17.161 86.5461 17.5451 86.5083C18.4532 86.4177 19.3608 86.3023 20.2632 86.1639C21.3833 85.9904 22.4698 86.1169 23.5197 86.5121C24.5527 86.902 25.5874 87.2966 26.5911 87.7558C31.8188 90.1508 37.2889 91.7536 42.9535 92.6676C44.8627 92.9758 46.806 93.0148 48.7466 92.6294C50.0855 92.3641 51.4642 92.2897 52.8272 92.1545C54.0832 92.0319 55.2993 91.8274 56.4366 91.1948C56.827 90.9766 57.3936 90.963 57.8631 91.0129C60.9737 91.3474 64.066 91.3897 67.1981 91.0941C71.9502 90.6476 76.6956 90.7578 81.354 92.0903C82.8063 92.5071 84.3455 92.6142 85.8403 92.8856C86.2479 92.9596 86.6745 93.0494 87.0302 93.2415C88.1698 93.8544 89.2795 94.5213 90.3996 95.1662C91.4532 95.7728 92.4784 96.4308 93.5624 96.9776C96.2649 98.3393 98.658 100.163 101.062 101.966C104.294 104.389 107.452 106.919 110.046 110.034C113.208 113.831 116.636 117.418 119.389 121.543C120.336 122.96 121.313 124.385 121.409 126.197C121.427 126.542 121.67 126.918 121.908 127.197C123.261 128.789 124.034 130.711 124.941 132.548C126.105 134.904 127.31 137.227 128.85 139.366C129.938 140.876 130.99 142.41 131.966 144.017C131.097 143.24 130.141 142.541 129.381 141.671C128.066 140.162 126.407 139.069 124.928 137.761C124.53 137.408 124.085 137.098 123.731 136.709C121.951 134.745 119.842 133.198 117.621 131.782C116.498 131.066 115.448 130.243 114.331 129.521C111.93 127.971 109.511 126.405 106.806 125.471C103.143 124.205 99.4668 122.873 95.4942 122.943C95.2686 122.947 95.0288 122.939 94.8142 122.872C91.9061 121.958 88.9103 121.431 85.9313 120.819C83.8154 120.384 82.0572 119.267 80.6872 117.586C80.1877 116.974 79.6798 116.47 78.7968 116.506C78.5345 116.517 78.2228 116.308 78.0004 116.12C76.4483 114.803 75.0695 113.347 74.3112 111.404C74.1317 110.944 73.916 110.495 73.6966 110.053C73.5455 109.746 73.386 109.437 73.1798 109.165C72.4588 108.207 71.5317 107.472 70.2952 107.648C69.1488 107.81 68.5351 108.758 68.105 109.771C67.6403 110.867 67.6467 111.998 67.9684 113.129C68.1542 113.782 68.3699 114.427 68.6192 115.231C68.1732 115.271 67.8118 115.36 67.4645 115.322C66.3632 115.199 65.4136 115.396 64.7826 116.407C64.0923 117.51 63.9182 118.682 64.4304 119.895C64.9799 121.201 65.015 121.209 63.905 122.062C62.3506 123.259 61.7422 124.913 61.798 126.773C61.8385 128.178 62.5794 129.39 63.8271 130.022C65.0879 130.657 65.5213 131.385 65.1149 132.786C64.8138 133.824 65.0841 134.893 65.7605 135.815C66.4819 136.794 67.4877 137.121 68.6404 137.194C69.7704 137.266 69.7689 137.281 70.109 138.339C70.1677 138.52 70.2297 138.7 70.2837 138.882C70.903 140.916 72.6869 141.828 74.6531 140.968C75.6468 140.532 76.5486 139.858 77.4357 139.214C78.2352 138.636 78.4009 138.595 79.008 139.332C79.3957 139.801 79.7599 140.29 80.1283 140.774C80.8498 141.727 81.8503 142.266 82.9479 142.627C84.0009 142.97 84.9872 142.568 85.581 141.566C86.1863 140.541 86.4139 139.428 86.0276 138.274C85.4965 136.686 84.9208 135.116 84.3488 133.545C84.0927 132.833 83.8004 132.138 83.5821 131.581C84.0594 130.895 84.3684 130.27 84.8384 129.817C85.7633 128.928 86.6729 127.931 87.7819 127.35C89.5608 126.42 91.5229 125.852 93.3559 125.017C94.9513 124.293 96.5499 124.381 98.1606 124.744C100.536 125.278 102.915 125.806 105.186 126.716C105.609 126.886 106.049 127.02 106.465 127.209C109.971 128.798 113.361 130.598 116.498 132.848C117.827 133.8 119.184 134.72 120.473 135.724C121.911 136.844 123.285 138.046 124.692 139.21C125.278 139.692 125.885 140.15 126.457 140.648C126.884 141.019 127.271 141.432 127.668 141.837C127.934 142.109 128.163 142.418 128.439 142.675C129.751 143.888 131.111 145.052 132.381 146.307C133.324 147.239 134.17 148.27 135.031 149.283C135.744 150.122 136.384 151.024 137.118 151.846C137.435 152.204 137.867 152.559 138.312 152.684C140.904 153.412 142.512 155.36 144.106 157.3C145.117 158.531 146.026 159.857 146.896 161.194C148.328 163.391 149.711 165.623 151.08 167.864C151.392 168.374 151.549 168.98 151.791 169.538C151.941 169.885 152.062 170.263 152.286 170.558C152.924 171.391 153.606 171.326 154.135 170.427C154.862 169.19 154.78 168.925 153.859 167.828C153.08 166.899 152.445 165.85 151.712 164.878C149.808 162.36 147.825 159.899 145.992 157.33C144.865 155.752 143.355 154.608 142.025 153.259C140.425 151.637 138.958 149.883 137.427 148.193C137.018 147.742 136.584 147.314 136.157 146.881C134.951 145.66 133.853 144.364 132.954 142.884C132.125 141.519 131.155 140.243 130.246 138.927C128.008 135.685 126.495 132.044 124.589 128.618C124.429 128.329 124.328 127.968 124.322 127.638C124.305 126.687 123.935 125.874 123.5 125.059C121.59 121.493 119.503 118.048 116.745 115.057C115.653 113.876 114.938 112.559 114.896 110.893C114.824 108.192 113.381 106.056 111.791 104.047C110.441 102.342 108.747 100.975 107.039 99.6242C105.464 98.378 103.976 97.0091 102.507 95.6354C102.177 95.3269 102.01 94.7907 101.884 94.328C101.422 92.6422 101.144 90.8925 100.54 89.2635C99.9479 87.6685 99.1135 86.148 98.2524 84.6742C97.4454 83.2985 96.4642 82.0246 95.559 80.7081C94.2651 78.8277 92.8971 76.9918 91.7013 75.0521C91.1152 74.0988 90.8459 72.9524 90.4319 71.8932C90.2262 71.3674 90.1054 70.7819 89.7927 70.3297C89.406 69.7698 88.8068 69.8799 88.5719 70.5252C88.4239 70.9417 88.329 71.4302 88.3905 71.8599C88.57 73.1358 88.8047 74.4071 89.0823 75.6646C89.4844 77.4852 89.8865 79.3089 90.3976 81.0979C91.0799 83.4778 91.8766 85.8251 93.4182 87.8273C93.5572 88.0083 93.7005 88.1841 93.8411 88.3656C95.315 90.255 96.7721 92.1549 98.2639 94.0306C98.8327 94.741 99.4781 95.3906 100.089 96.0717C102.174 98.3945 104.354 100.614 106.91 102.439C108.975 103.915 110.663 105.77 112.062 107.882C112.532 108.599 112.951 109.352 112.867 110.289ZM41.7986 49.935C41.8563 49.8679 41.9161 49.8007 41.9738 49.7357C41.9323 49.5935 41.9302 49.4162 41.8426 49.316C40.8488 48.1742 40.0328 46.8526 38.7085 46.0403C36.5437 44.7138 35.1637 42.7452 34.078 40.5222C34.0114 40.3863 33.9531 40.2431 33.9164 40.0951C33.7621 39.4519 33.8885 39.1083 34.5285 38.9772C35.1434 38.8492 35.8165 38.8068 36.433 38.9123C37.8999 39.1622 39.1512 39.8847 40.156 40.9882C41.5108 42.4762 42.9931 43.8556 44.0583 45.5933C44.3941 46.1421 44.8364 46.6275 45.2562 47.1197C45.7452 47.6947 46.3926 47.9183 47.1958 47.9367C46.9964 47.1938 46.8473 46.5254 46.6369 45.8764C45.7111 43.0107 45.4196 40.1005 45.7609 37.0959C45.981 35.1632 47.6414 34.0149 49.1156 33.9332C50.7016 33.8426 51.9698 35.0227 52.4038 36.8133C52.8689 38.7272 52.4027 40.543 51.8651 42.3146C51.3071 44.1561 51.078 46.0096 51.0509 48.1312C51.4585 47.7782 51.8179 47.572 52.0209 47.262C52.3299 46.7904 52.5711 46.2616 52.7683 45.7307C53.8095 42.9412 54.5437 40.0642 55.0974 37.1441C55.2809 36.1746 55.6942 35.3279 56.373 34.6386C57.0377 33.9634 57.8603 33.4945 58.834 33.7653C59.8372 34.0466 60.1898 34.907 60.3478 35.8561C60.3547 35.8934 60.3662 35.9312 60.3678 35.9695C60.4689 39.1435 59.9366 42.0862 57.596 44.4951C56.2441 45.8868 55.0439 47.4229 54.3704 49.2916C54.1407 49.9295 53.7273 50.4163 53.1435 50.7421C51.8986 51.436 51.203 52.4999 50.8485 53.8629C50.613 54.7647 50.3382 55.6744 49.714 56.5159C49.0759 55.9912 48.503 55.4948 47.9001 55.0378C47.2049 54.5115 46.5312 53.9228 45.76 53.5355C43.815 52.5579 41.6919 53.917 41.657 56.0906C41.6424 56.9552 41.9085 57.7354 42.3209 58.4815C42.4553 58.7249 42.5471 58.992 42.694 59.3341C42.1191 59.4494 41.6789 59.5464 41.2345 59.6245C40.5908 59.7331 40.1187 60.0908 39.7782 60.6296C38.7884 62.2061 37.8363 63.8066 36.8113 65.3595C36.1011 66.437 35.3457 67.4957 34.5106 68.4777C33.6545 69.487 32.5417 69.2744 31.9477 68.097C31.573 67.351 31.6653 66.6018 31.9726 65.8873C32.5732 64.4892 33.2121 63.1063 33.8562 61.7276C34.1709 61.053 34.7165 60.6102 35.3528 60.2142C36.6418 59.4121 37.882 58.5288 39.1316 57.6664C39.2412 57.5914 39.2874 57.4256 39.4185 57.2073C39.1126 57.1931 38.8907 57.137 38.6945 57.1831C37.7329 57.4081 36.7492 57.5859 35.8253 57.921C33.3837 58.8053 30.8702 59.3921 28.3226 59.8546C27.8085 59.9469 27.2602 59.9421 26.7351 59.8953C25.9596 59.827 25.1543 59.6523 24.8977 58.7976C24.6584 57.9991 25.2181 57.4551 25.749 56.9347C26.6864 56.0151 27.8395 55.5609 29.0986 55.3438C30.9721 55.0224 32.8476 54.7115 34.7279 54.4347C35.5017 54.3209 36.1701 54.1164 36.7482 53.5204C37.0572 53.202 37.6002 53.0892 38.0566 52.9413C38.5581 52.7788 39.0838 52.6833 39.5974 52.5601C39.5911 52.4709 39.5848 52.3849 39.5775 52.2978C38.2973 51.9755 37.0277 51.6018 35.7354 51.3441C34.2444 51.046 32.7198 50.9062 31.2355 50.5782C30.5975 50.4386 29.9186 50.1122 29.4453 49.6693C28.3251 48.6247 28.5884 47.4726 30.0253 46.9832C32.5802 46.1115 35.0864 46.1554 37.2954 47.867C38.6706 48.9316 40.3531 49.1222 41.7986 49.935ZM79.3732 129.62C78.9347 130.042 78.6472 130.228 78.4825 130.492C77.8373 131.531 77.3154 132.594 77.3538 133.896C77.4086 135.826 76.5452 137.35 74.964 138.44C74.0533 139.066 72.8088 139.015 72.2002 138.398C71.6183 137.808 71.6518 136.942 72.3521 135.885C72.8131 135.188 73.3624 134.548 73.8124 133.844C75.0215 131.953 76.1514 130.004 78.168 128.8C78.338 128.697 78.4145 128.274 78.3657 128.033C78.341 127.909 77.9087 127.743 77.7209 127.8C77.0331 128.002 76.3338 128.22 75.709 128.562C74.3733 129.291 73.49 130.502 72.5966 131.691C72.0951 132.361 71.5874 133.027 71.0444 133.661C70.3903 134.43 69.5047 134.762 68.52 134.818C67.8091 134.859 67.2865 134.533 66.9418 133.898C66.6117 133.288 66.8262 132.751 67.2317 132.333C67.7296 131.82 68.2898 131.346 68.8931 130.964C69.488 130.587 69.936 130.141 70.32 129.544C71.1441 128.262 72.0584 127.055 73.6238 126.549C74.1238 126.39 74.6873 126.17 74.9259 125.391C72.5404 125.469 70.3621 125.757 68.5349 127.277C68.3398 127.44 68.1945 127.689 68.0906 127.926C67.746 128.705 67.4764 128.915 66.6716 128.888C65.7026 128.857 64.9329 128.362 64.245 127.744C63.2644 126.867 63.2196 125.514 64.2043 124.637C65.1271 123.817 66.2067 123.228 67.4879 123.206C69.4626 123.173 71.4389 123.213 73.4121 123.148C74.4692 123.114 75.529 122.968 76.5756 122.797C76.9387 122.737 77.2692 122.456 77.7397 122.209C77.4459 122.045 77.3289 121.942 77.1967 121.912C74.7482 121.362 72.2938 120.834 69.8495 120.272C68.9628 120.066 68.0777 119.824 67.223 119.512C66.4691 119.237 66.0315 118.684 66.1962 118.317C66.4674 117.704 67.0807 117.8 67.5896 117.803C68.9054 117.805 70.1541 118.155 71.3235 118.744C73.0665 119.625 74.9458 119.737 77.0423 119.885C76.7479 119.606 76.6005 119.452 76.4378 119.316C75.2373 118.321 74.009 117.356 72.8374 116.331C71.6002 115.248 70.5115 114.023 69.7511 112.551C69.4053 111.878 69.5039 111.355 69.9293 110.986C70.4345 110.544 71.1543 110.488 71.712 110.951C72.0515 111.231 72.3653 111.614 72.5348 112.014C73.5035 114.303 74.9119 116.251 76.8264 117.836C76.9728 117.956 77.0888 118.11 77.2257 118.242C77.7646 118.767 78.0663 119.388 78.154 120.148C78.2207 120.707 78.3173 121.305 78.5776 121.791C79.1133 122.793 79.1423 123.757 78.9436 124.866C78.576 126.917 78.8207 128.838 80.8769 130.037C81.4047 130.346 81.6529 130.839 81.7379 131.445C81.7962 131.853 81.9169 132.262 82.0696 132.648C82.6569 134.134 83.2855 135.604 83.8591 137.093C84.0769 137.658 84.2103 138.258 84.3441 138.851C84.4554 139.338 84.5414 139.858 84.0698 140.217C83.5478 140.617 82.9776 140.502 82.4576 140.213C82.1308 140.032 81.7986 139.801 81.5746 139.511C81.0871 138.88 80.6505 138.207 80.2281 137.531C79.4778 136.33 79.1671 135.026 79.308 133.604C79.3961 132.698 79.4186 131.782 79.4499 130.869C79.4604 130.553 79.4131 130.234 79.3732 129.62ZM52.7992 89.9085C52.7945 89.9888 52.7913 90.0696 52.785 90.1504C52.3994 90.2327 52.017 90.3465 51.624 90.3932C48.2055 90.8031 44.7938 90.7508 41.4003 90.1272C37.1507 89.3429 33.093 87.9102 29.051 86.4387C28.3626 86.1879 27.7419 85.7539 27.0011 85.3551C27.244 85.1678 27.3248 85.0566 27.4176 85.0456C27.906 84.9822 28.3997 84.9471 28.8903 84.8952C32.2301 84.5493 35.4929 85.1524 38.7504 85.7377C40.508 86.0527 42.273 86.3918 43.9865 86.8904C46.3968 87.5895 48.763 88.4407 51.1449 89.2436C51.7063 89.4326 52.2483 89.6839 52.7992 89.9085ZM41.9326 62.2268C42.2825 62.1529 42.463 62.0795 42.6403 62.0837C43.1718 62.099 43.7016 62.1494 44.2336 62.1746C45.103 62.2193 45.7792 61.9429 46.1925 61.1056C46.6169 60.2384 46.7039 59.4315 45.9709 58.6933C45.5443 58.2636 45.0994 57.849 44.6508 57.4414C44.1639 56.9985 43.8558 56.4775 43.755 55.8143C44.809 55.6922 45.1595 55.7689 46.021 56.4709C47.1402 57.3855 48.2053 58.3614 49.3286 59.2686C50.0564 59.8558 50.5569 59.7782 50.9833 58.9477C51.415 58.1099 51.7297 57.2076 52.0376 56.311C52.3092 55.522 52.4744 54.6957 52.7382 53.904C52.8421 53.5945 53.0278 53.2409 53.2838 53.0751C53.5671 52.8957 54.0119 52.793 54.311 52.8895C54.4763 52.9425 54.5157 53.4698 54.5545 53.7898C54.5761 53.9677 54.4911 54.1607 54.4392 54.3449C53.577 57.4276 52.9577 60.5539 52.6899 63.7473C52.6695 63.9934 52.594 64.2357 52.5447 64.4729C52.3506 64.475 52.2215 64.5117 52.1276 64.4713C50.4886 63.7492 48.7315 63.695 46.9918 63.5416C45.8942 63.4439 44.7956 63.3493 43.7028 63.2091C43.0706 63.1299 42.4368 62.9892 41.9326 62.2268ZM89.1209 123.804C86.6773 125.284 84.4782 126.749 82.9438 129.12C82.2749 128.553 81.7161 128.103 81.1877 127.621C80.5954 127.084 80.4788 126.42 80.6503 125.642C80.8102 124.904 80.9586 124.143 80.9454 123.394C80.9291 122.482 80.7396 121.572 80.6235 120.65C80.7049 120.678 80.8213 120.695 80.9058 120.757C82.25 121.743 83.7249 122.346 85.4022 122.559C86.6262 122.714 87.8617 122.978 89.1209 123.804ZM91.7053 78.5625C91.9918 78.8668 92.1004 78.9587 92.1802 79.0699C93.5507 80.9829 94.8987 82.9121 96.2913 84.8114C97.4651 86.4133 98.4799 88.0996 99.1847 89.9585C99.5237 90.8556 99.8711 91.7602 99.9452 92.9443C99.6299 92.6552 99.4478 92.5319 99.3182 92.3666C97.8858 90.5501 96.4402 88.7437 95.0471 86.8963C94.4563 86.1113 93.9557 85.254 93.4593 84.4051C92.4528 82.6894 91.6741 80.8961 91.7053 78.5625Z" fill="#88A7B6"/>
<g filter="url(#filter0_d_2020_7789)">
<rect x="120.388" y="10" width="762" height="200" rx="40" fill="#E8EDF1" shape-rendering="crispEdges"/>
<rect x="123.388" y="13" width="756" height="194" rx="37" stroke="white" stroke-width="6" shape-rendering="crispEdges"/>
</g>
<defs>
<filter id="filter0_d_2020_7789" x="110.388" y="0" width="782" height="220" filterUnits="userSpaceOnUse" color-interpolation-filters="sRGB">
<feFlood flood-opacity="0" result="BackgroundImageFix"/>
<feColorMatrix in="SourceAlpha" type="matrix" values="0 0 0 0 0 0 0 0 0 0 0 0 0 0 0 0 0 0 127 0" result="hardAlpha"/>
<feOffset/>
<feGaussianBlur stdDeviation="5"/>
<feComposite in2="hardAlpha" operator="out"/>
<feColorMatrix type="matrix" values="0 0 0 0 0.485 0 0 0 0 0.561667 0 0 0 0 0.6 0 0 0 0.4 0"/>
<feBlend mode="normal" in2="BackgroundImageFix" result="effect1_dropShadow_2020_7789"/>
<feBlend mode="normal" in="SourceGraphic" in2="effect1_dropShadow_2020_7789" result="shape"/>
</filter>
</defs>
</svg>
