<svg width="20" height="20" viewBox="0 0 20 20" fill="none" xmlns="http://www.w3.org/2000/svg">
<path d="M9.81403 18.1979C7.91149 17.0227 6.14291 15.6371 4.54063 14.0663C3.40948 12.9448 2.54561 11.5754 2.01502 10.0627C1.067 7.11269 2.17056 3.74123 5.25165 2.74033C6.8779 2.22961 8.6466 2.54313 10.0066 3.5832V3.5832C11.3671 2.54429 13.1352 2.23087 14.7615 2.74033C17.8426 3.74123 18.9536 7.11269 18.0056 10.0627C17.4793 11.574 16.6206 12.9433 15.4948 14.0663C13.891 15.6354 12.1227 17.0209 10.2214 18.1979L10.014 18.3333L9.81403 18.1979Z" fill="#E8EDF1"/>
<path d="M10.0094 18.333L9.81365 18.1975C7.90877 17.0225 6.13772 15.6369 4.53284 14.066C3.39633 12.946 2.52731 11.5765 1.99242 10.0624C1.0518 7.11236 2.15537 3.7409 5.23645 2.74C6.86271 2.22928 8.65473 2.54304 10.0094 3.59181V18.333Z" fill="#E8EDF1"/>
<path d="M15.1927 8.33269V8.33269C15.0253 8.32191 14.8694 8.23825 14.7615 8.1013C14.6537 7.96436 14.6033 7.78617 14.6222 7.60847V7.60847C14.6404 7.02317 14.3073 6.49042 13.7938 6.28314C13.4681 6.19424 13.2709 5.84156 13.3523 5.49374C13.4296 5.15152 13.7501 4.93873 14.0722 5.01575C14.1129 5.0225 14.152 5.03723 14.1876 5.05921C15.2174 5.45548 15.8841 6.52201 15.831 7.68813C15.8294 7.86488 15.7604 8.03332 15.6401 8.15484C15.5197 8.27637 15.3583 8.34055 15.1927 8.33269Z" fill="#E8EDF1"/>
</svg>
