<svg width="24" height="24" viewBox="0 0 24 24" fill="none" xmlns="http://www.w3.org/2000/svg">
<path d="M13.254 10.1361C13.5855 9.76339 13.8587 9.38166 14.2036 9.05831C15.2517 8.06581 16.4969 7.56731 17.9481 7.57629C18.7454 7.58527 19.5337 7.63916 20.2996 7.86371C22.0554 8.37119 23.0811 9.58824 23.5649 11.3083C23.9321 12.6017 23.9993 13.9265 23.9993 15.2559C24.0038 18.0627 23.9904 20.8651 23.9993 23.6719C23.9993 23.9324 23.9277 24.0043 23.6679 23.9998C22.2256 23.9863 20.7833 23.9863 19.3456 23.9998C19.0903 23.9998 19.0365 23.9234 19.0365 23.6809C19.0455 21.0133 19.0455 18.3411 19.0365 15.6735C19.0365 15.0044 18.9917 14.3352 18.8036 13.684C18.4587 12.4849 17.6032 11.8742 16.3535 11.9415C14.6425 12.0313 13.7557 12.8801 13.5362 14.6226C13.4825 15.0403 13.4601 15.4535 13.4601 15.8756C13.4601 18.4714 13.4601 21.0672 13.469 23.663C13.469 23.9234 13.4063 23.9998 13.142 23.9953C11.6908 23.9818 10.2396 23.9818 8.78838 23.9953C8.55547 23.9953 8.48828 23.9324 8.48828 23.6989C8.49276 18.5612 8.49276 13.419 8.48828 8.28137C8.48828 8.02539 8.56891 7.96701 8.81078 7.9715C10.1903 7.98048 11.5699 7.98497 12.945 7.9715C13.2003 7.9715 13.263 8.05233 13.2585 8.29036C13.2451 8.90562 13.254 9.52088 13.254 10.1317V10.1361Z" fill="#2967B0"/>
<path d="M5.35769 16.0115C5.35769 18.5534 5.35769 21.0953 5.36217 23.6372C5.36217 23.9201 5.29498 24.0054 4.99936 24.0009C3.5571 23.983 2.11931 23.9875 0.677051 24.0009C0.444139 24.0009 0.376953 23.9425 0.376953 23.7045C0.385911 18.5579 0.381432 13.4112 0.376953 8.26008C0.376953 8.049 0.426223 7.97266 0.654656 7.97266C2.11484 7.98164 3.57949 7.98613 5.03967 7.97266C5.32185 7.97266 5.35769 8.08044 5.35769 8.31846C5.34873 10.8828 5.35769 13.4471 5.35769 16.007V16.0115Z" fill="#2967B0"/>
<path d="M5.75562 2.87422C5.75562 4.46852 4.46565 5.7709 2.87558 5.7709C1.3079 5.7709 0.00449059 4.46852 1.15096e-05 2.89668C-0.00446757 1.30687 1.29894 0 2.88454 0C4.45669 0 5.75562 1.29789 5.75562 2.86973V2.87422Z" fill="#2967B0"/>
</svg>
