<svg width="500" height="500" viewBox="0 0 500 500" fill="none" xmlns="http://www.w3.org/2000/svg">
<path d="M206.424 408C206.424 427.667 187.257 437.5 148.924 437.5C140.59 437.5 135.59 433.333 133.924 425C132.59 416.333 131.924 404.333 131.924 389C131.924 356.667 138.424 316.667 151.424 269C173.091 190.333 196.257 144 220.924 130C224.257 128 227.924 127 231.924 127C235.924 127 237.924 133.5 237.924 146.5C237.924 159.5 237.257 171 235.924 181C233.257 201 228.424 226.833 221.424 258.5C214.757 290.167 211.424 308.833 211.424 314.5L206.424 408ZM240.424 273.5C240.424 269.167 242.757 266.333 247.424 265C252.424 263.667 258.59 262.5 265.924 261.5C273.257 260.167 281.257 258.333 289.924 256C298.591 253.667 306.591 249.333 313.924 243C330.924 228.333 339.424 203.833 339.424 169.5C339.424 147.5 331.924 130.667 316.924 119C302.257 107.333 280.924 101.5 252.924 101.5C225.257 101.5 199.257 107.333 174.924 119C165.924 123.333 157.757 127.333 150.424 131C143.424 134.667 136.924 136.5 130.924 136.5C124.924 136.5 121.924 134.667 121.924 131C121.924 125.333 127.424 116 138.424 103C149.424 91 166.757 79.8333 190.424 69.5C214.424 59.1667 239.591 54 265.924 54C315.591 53.6667 354.257 65.3333 381.924 89C405.924 109.667 417.924 136.5 417.924 169.5C417.924 202.167 406.091 231.5 382.424 257.5C358.757 283.167 329.091 296 293.424 296C258.091 296 240.424 288.5 240.424 273.5Z" fill="#576E7A"/>
</svg>
