<svg width="135" height="22" viewBox="0 0 135 22" fill="none" xmlns="http://www.w3.org/2000/svg">
<path d="M0.40625 22V0.181818H9.82386C11.4432 0.181818 12.8601 0.50142 14.0746 1.14062C15.2891 1.77983 16.2337 2.67827 16.9084 3.83594C17.5831 4.99361 17.9205 6.34659 17.9205 7.89489C17.9205 9.45739 17.5724 10.8104 16.8764 11.9538C16.1875 13.0973 15.218 13.978 13.968 14.5959C12.7251 15.2138 11.2727 15.5227 9.6108 15.5227H3.9858V10.9205H8.41761C9.11364 10.9205 9.70668 10.7997 10.1967 10.5582C10.6939 10.3097 11.0739 9.9581 11.3366 9.50355C11.6065 9.04901 11.7415 8.51278 11.7415 7.89489C11.7415 7.26989 11.6065 6.73722 11.3366 6.29688C11.0739 5.84943 10.6939 5.50852 10.1967 5.27415C9.70668 5.03267 9.11364 4.91193 8.41761 4.91193H6.32955V22H0.40625ZM23.0368 22H16.6447L23.8464 0.181818H31.943L39.1447 22H32.7527L27.9799 6.19034H27.8095L23.0368 22ZM21.8436 13.392H33.8606V17.8239H21.8436V13.392ZM41.2461 22V0.181818H50.6637C52.283 0.181818 53.6999 0.476562 54.9144 1.06605C56.1289 1.65554 57.0735 2.50426 57.7482 3.61222C58.4229 4.72017 58.7603 6.04829 58.7603 7.59659C58.7603 9.15909 58.4123 10.4766 57.7163 11.549C57.0273 12.6214 56.0579 13.4311 54.8079 13.978C53.565 14.5249 52.1126 14.7983 50.4506 14.7983H44.8256V10.196H49.2575C49.9535 10.196 50.5465 10.1108 51.0366 9.94034C51.5337 9.76278 51.9137 9.48224 52.1765 9.09872C52.4464 8.7152 52.5813 8.21449 52.5813 7.59659C52.5813 6.97159 52.4464 6.46378 52.1765 6.07315C51.9137 5.67543 51.5337 5.38423 51.0366 5.19957C50.5465 5.00781 49.9535 4.91193 49.2575 4.91193H47.1694V22H41.2461ZM54.0302 11.9858L59.4847 22H53.0501L47.7234 11.9858H54.0302ZM80.163 0.181818V22H75.2198L67.3363 10.5369H67.2085V22H61.2852V0.181818H66.3136L74.0692 11.6023H74.2397V0.181818H80.163ZM88.8881 0.181818V22H82.9648V0.181818H88.8881ZM97.3629 22H90.9709L98.1726 0.181818H106.269L113.471 22H107.079L102.306 6.19034H102.136L97.3629 22ZM96.1697 13.392H108.187V17.8239H96.1697V13.392ZM134.45 0.181818V22H129.507L121.623 10.5369H121.496V22H115.572V0.181818H120.601L128.356 11.6023H128.527V0.181818H134.45Z" fill="#576F7A"/>
</svg>
