<svg width="231" height="33" viewBox="0 0 231 33" fill="none" xmlns="http://www.w3.org/2000/svg">
<path d="M11.4672 19.168C9.65382 18.6773 8.74716 17.6427 8.74716 16.064C8.74716 15.4453 8.90716 14.976 9.22716 14.656C9.56849 14.3147 9.85649 14.144 10.0912 14.144C10.4752 14.144 10.6992 14.2613 10.7632 14.496L10.7952 14.624C10.2405 14.624 9.85649 14.9333 9.64316 15.552C9.57916 15.7653 9.54716 15.9787 9.54716 16.192C9.54716 16.7467 9.76049 17.2053 10.1872 17.568C10.6352 17.9307 11.1152 18.1867 11.6272 18.336C12.3525 14.0267 12.8218 11.424 13.0352 10.528C13.8458 7.24267 14.9978 5.42933 16.4912 5.088C16.6832 5.04533 16.8752 5.024 17.0672 5.024C17.3872 5.024 17.6005 5.152 17.7072 5.408L17.7392 5.568C16.8432 5.568 16.1498 6.05867 15.6592 7.04C15.1898 8.02133 14.8592 9.10933 14.6672 10.304C14.4965 11.4987 14.3685 12.4373 14.2832 13.12C14.1978 13.8027 14.0912 14.7093 13.9632 15.84C13.8565 16.9493 13.7605 17.856 13.6752 18.56C16.2992 18.4747 18.4645 17.312 20.1712 15.072C21.6005 13.1947 22.3152 11.1573 22.3152 8.96C22.3152 6.48533 21.4405 4.704 19.6912 3.616C18.6672 2.99733 17.4192 2.688 15.9472 2.688C11.8085 2.688 8.66182 4.16 6.50716 7.104C5.01382 9.10933 4.26716 11.3493 4.26716 13.824C4.26716 16.256 4.90716 17.9733 6.18716 18.976C6.76316 19.4453 7.42449 19.68 8.17116 19.68C7.97916 20.1707 7.64849 20.416 7.17916 20.416C5.38716 20.416 4.11782 19.4987 3.37116 17.664C2.96582 16.6827 2.76316 15.6267 2.76316 14.496C2.76316 13.3653 2.95516 12.1707 3.33916 10.912C4.25649 7.92533 5.97382 5.61067 8.49116 3.968C10.6032 2.58133 13.0885 1.888 15.9472 1.888C19.5525 1.888 22.0165 3.05067 23.3392 5.376C23.9578 6.44267 24.2672 7.53067 24.2672 8.64C24.2672 9.74933 24.0858 10.848 23.7232 11.936C22.9125 14.368 21.4405 16.288 19.3072 17.696C17.5792 18.8053 15.6698 19.3707 13.5792 19.392C12.9392 23.9147 11.8832 27.0827 10.4112 28.896C9.83516 29.6213 9.09916 30.208 8.20316 30.656C7.30716 31.104 6.31516 31.328 5.22716 31.328C4.13916 31.328 3.21116 31.136 2.44316 30.752C1.67516 30.368 1.13116 29.8773 0.811156 29.28C0.32049 28.4053 0.0751562 27.6053 0.0751562 26.88C0.0751562 26.1547 0.181823 25.4827 0.395156 24.864C0.60849 24.224 0.917823 23.6053 1.32316 23.008C1.72849 22.3893 2.26182 21.888 2.92316 21.504C3.58449 21.12 4.29916 20.928 5.06716 20.928C5.51516 20.928 5.80316 21.0773 5.93116 21.376L6.02716 21.536C4.17116 21.536 2.76316 22.3253 1.80316 23.904C1.22716 24.8213 0.939156 25.7387 0.939156 26.656C0.939156 27.104 1.00316 27.5413 1.13116 27.968C1.57916 29.632 2.74182 30.464 4.61916 30.464C5.45116 30.464 6.20849 30.2507 6.89116 29.824C7.57382 29.3973 8.13916 28.8533 8.58716 28.192C9.05649 27.552 9.48316 26.6987 9.86716 25.632C10.4432 24.032 10.9765 21.8773 11.4672 19.168ZM23.9465 28C23.3492 28 23.0505 27.5413 23.0505 26.624C23.0505 26.1333 23.6479 22.56 24.8425 15.904C24.9279 15.456 25.1199 15.232 25.4185 15.232C25.8025 15.232 26.0905 15.5093 26.2825 16.064C26.3892 16.3627 26.4425 16.6933 26.4425 17.056C26.4425 17.3973 26.3999 17.7707 26.3145 18.176L25.8025 20.8H25.9625C27.7972 16.5333 29.4825 14.4 31.0185 14.4C31.8719 14.4 32.4372 14.816 32.7145 15.648C32.8212 15.968 32.8745 16.3413 32.8745 16.768C32.8745 17.1733 32.7572 17.6213 32.5225 18.112C32.1172 18.944 31.5092 19.36 30.6985 19.36C30.5279 19.36 30.3892 19.3173 30.2825 19.232C30.1972 19.1467 30.1439 19.0293 30.1225 18.88C30.2932 18.88 30.5172 18.5707 30.7945 17.952C31.0719 17.312 31.2319 16.7253 31.2745 16.192C31.3172 15.6587 31.1359 15.3493 30.7305 15.264C29.9839 15.264 29.0985 16.2347 28.0745 18.176C27.0505 20.1173 26.2292 21.9733 25.6105 23.744C24.9919 25.5147 24.6292 26.6667 24.5225 27.2C24.4159 27.7333 24.2239 28 23.9465 28ZM35.443 23.776C35.443 26.016 36.0404 27.136 37.235 27.136C38.0457 27.136 38.803 26.6347 39.507 25.632C40.851 23.7547 41.6724 21.28 41.971 18.208C41.2244 17.888 40.7017 17.3653 40.403 16.64C40.211 16.192 40.115 15.8187 40.115 15.52C40.115 15.2 40.1577 14.9227 40.243 14.688C40.435 14.112 40.787 13.824 41.299 13.824C41.811 13.824 42.195 14.1547 42.451 14.816C42.7284 15.456 42.867 16.2773 42.867 17.28C42.867 17.344 42.867 17.4187 42.867 17.504C43.123 17.5893 43.4964 17.632 43.987 17.632C44.499 17.632 44.947 17.4293 45.331 17.024C45.715 16.6187 45.907 16.2453 45.907 15.904C45.907 15.8187 45.9604 15.7653 46.067 15.744C46.1737 15.7013 46.2697 15.7013 46.355 15.744C46.4617 15.7867 46.515 15.8507 46.515 15.936C46.515 16.5547 46.2484 17.1413 45.715 17.696C45.203 18.2507 44.5097 18.528 43.635 18.528C43.4217 18.528 43.1444 18.5067 42.803 18.464C42.675 19.9147 42.3657 21.3547 41.875 22.784C41.4057 24.192 40.7444 25.4187 39.891 26.464C39.0377 27.488 38.1204 28 37.139 28C35.283 28 34.1417 27.008 33.715 25.024C33.6084 24.448 33.555 23.8613 33.555 23.264C33.555 21.92 33.8644 20.48 34.483 18.944C35.2937 16.9387 36.2964 15.6907 37.491 15.2C38.1097 14.9867 38.5364 14.9547 38.771 15.104C39.0057 15.2533 39.155 15.424 39.219 15.616C38.2377 15.616 37.363 16.5333 36.595 18.368C35.827 20.2027 35.443 22.0053 35.443 23.776ZM58.7092 10.048C58.0905 12.288 57.5998 14.1547 57.2372 15.648C56.8958 17.12 56.5118 18.8373 56.0852 20.8C55.6798 22.7413 55.4772 24.2987 55.4772 25.472C55.4772 26.6453 55.7438 27.232 56.2772 27.232C56.8532 27.232 57.6425 26.496 58.6452 25.024C59.6692 23.552 60.5438 22.08 61.2692 20.608L62.3252 18.4H63.1892C63.0612 18.656 62.8905 19.008 62.6772 19.456C62.4852 19.8827 62.0905 20.6613 61.4932 21.792C60.8958 22.9013 60.3198 23.8827 59.7652 24.736C59.2318 25.5893 58.6238 26.368 57.9412 27.072C57.2585 27.7547 56.6718 28.096 56.1812 28.096C54.6452 28.096 53.8772 26.9653 53.8772 24.704C53.8772 23.872 53.9945 22.784 54.2292 21.44H53.9732C51.6052 25.8347 49.6852 28.032 48.2132 28.032C46.5278 28.032 45.6852 26.7627 45.6852 24.224C45.6852 22.752 46.0692 21.1413 46.8372 19.392C47.9038 17.024 49.2585 15.4773 50.9012 14.752C51.4772 14.5173 52.0532 14.4 52.6292 14.4C53.2265 14.4 53.6958 14.5707 54.0372 14.912C54.3785 15.2533 54.5492 15.6373 54.5492 16.064C54.5492 16.256 54.4425 16.352 54.2292 16.352C54.0372 16.3307 53.9412 16.224 53.9412 16.032C53.9412 15.84 53.8345 15.6693 53.6212 15.52C53.4292 15.3493 53.1412 15.264 52.7572 15.264C51.4132 15.264 50.1972 16.4693 49.1092 18.88C48.0852 21.12 47.5732 23.2427 47.5732 25.248C47.5732 26.4853 47.8398 27.104 48.3732 27.104C49.0985 27.104 50.0052 26.3147 51.0932 24.736C52.1812 23.1573 53.1305 21.4613 53.9412 19.648C54.7732 17.8347 55.3598 16.1813 55.7012 14.688C56.0638 13.1733 56.6078 11.1147 57.3332 8.512C57.8025 6.82667 58.4212 5.984 59.1892 5.984C59.3598 5.984 59.4878 6.048 59.5732 6.176C59.6585 6.28267 59.6905 6.4 59.6692 6.528C59.6478 6.63467 59.3278 7.808 58.7092 10.048ZM71.2132 27.232C71.7678 27.232 72.5465 26.496 73.5492 25.024C74.5518 23.552 75.4158 22.08 76.1412 20.608L77.2292 18.4H78.0932C77.9652 18.656 77.7945 19.008 77.5812 19.456C77.3892 19.8827 76.9945 20.6613 76.3972 21.792C75.7998 22.9013 75.2238 23.8827 74.6692 24.736C74.1358 25.5893 73.5278 26.368 72.8452 27.072C72.1838 27.7547 71.5545 28.096 70.9572 28.096C70.3598 28.096 69.8692 27.9147 69.4852 27.552C69.0158 27.0827 68.7812 26.2613 68.7812 25.088C68.7812 23.9147 68.9838 22.368 69.3892 20.448H69.1652C66.7118 25.4827 64.6745 28 63.0532 28C61.6238 28 60.9092 27.072 60.9092 25.216C60.9092 23.872 61.4852 21.1947 62.6372 17.184C62.8932 16.2667 63.0852 15.584 63.2132 15.136C63.3412 14.6667 63.5438 14.432 63.8212 14.432C64.2052 14.432 64.4825 14.7093 64.6532 15.264C64.7385 15.4987 64.7812 15.7973 64.7812 16.16C64.7812 16.5013 64.7278 16.8853 64.6212 17.312C64.5145 17.7173 64.2905 18.5067 63.9492 19.68C63.0318 22.8373 62.5732 24.96 62.5732 26.048C62.5732 26.752 62.7865 27.104 63.2132 27.104C63.7465 27.104 64.3758 26.624 65.1012 25.664C65.8692 24.6613 66.4985 23.6907 66.9892 22.752C67.4798 21.8133 67.8745 21.0453 68.1732 20.448C68.4718 19.8507 68.7705 19.232 69.0692 18.592C69.3678 17.9307 69.6025 17.3867 69.7732 16.96C69.9652 16.5333 70.1465 16.128 70.3172 15.744C70.4878 15.3387 70.5732 15.1253 70.5732 15.104C70.7652 14.656 70.9785 14.432 71.2132 14.432C71.5972 14.432 71.8745 14.7093 72.0452 15.264C72.1305 15.52 72.1732 15.8293 72.1732 16.192C72.1732 16.5547 72.1305 16.9387 72.0452 17.344C71.9598 17.728 71.8212 18.304 71.6292 19.072C71.4372 19.84 71.2878 20.4693 71.1812 20.96C71.0745 21.4507 70.9465 22.048 70.7972 22.752C70.5838 23.9253 70.4772 24.9707 70.4772 25.888C70.4772 26.784 70.7225 27.232 71.2132 27.232ZM78.0141 23.456C78.0141 25.952 78.8781 27.2 80.6061 27.2C81.2888 27.2 82.0034 26.9013 82.7501 26.304C83.5181 25.6853 84.2114 24.9493 84.8301 24.096C86.1954 22.1333 87.1554 20.5333 87.7101 19.296L88.1261 18.4H88.9901C88.6274 19.2533 88.0941 20.3093 87.3901 21.568C86.6861 22.8053 86.0141 23.8507 85.3741 24.704C84.7341 25.5573 83.9768 26.336 83.1021 27.04C82.2274 27.7227 81.3954 28.064 80.6061 28.064C78.3874 28.064 76.9794 27.0507 76.3821 25.024C76.1901 24.384 76.0941 23.584 76.0941 22.624C76.0941 21.6427 76.3928 20.448 76.9901 19.04C77.8648 16.9493 79.0594 15.5413 80.5741 14.816C81.1714 14.5387 81.7581 14.4 82.3341 14.4C82.9314 14.4 83.4008 14.56 83.7421 14.88C84.1474 15.264 84.3501 15.712 84.3501 16.224C84.3501 16.7147 84.2968 17.1733 84.1901 17.6C84.0834 18.0267 83.8594 18.4107 83.5181 18.752C83.1981 19.072 82.8354 19.232 82.4301 19.232C82.2594 19.232 82.1314 19.1147 82.0461 18.88C82.2168 18.88 82.4408 18.5813 82.7181 17.984C83.0168 17.3653 83.1661 16.7573 83.1661 16.16C83.1661 15.5627 82.9101 15.264 82.3981 15.264C81.2888 15.264 80.2754 16.192 79.3581 18.048C78.4621 19.904 78.0141 21.7067 78.0141 23.456ZM87.2095 14.016C87.2095 13.7813 87.3588 13.664 87.6575 13.664H89.3215C89.4281 13.2373 89.5668 12.704 89.7375 12.064L90.1855 10.4C90.3135 9.90933 90.4201 9.46133 90.5055 9.056C90.6121 8.65067 90.8041 8.448 91.0815 8.448C91.4441 8.448 91.7001 8.72533 91.8495 9.28C91.9135 9.51467 91.9455 9.80267 91.9455 10.144C91.9455 10.4853 91.8815 10.9227 91.7535 11.456L91.1455 13.664H93.1295C93.3215 13.664 93.4495 13.728 93.5135 13.856C93.5988 13.984 93.5988 14.112 93.5135 14.24C93.4495 14.3467 93.3215 14.4 93.1295 14.4H90.9535C89.6308 19.3707 88.9695 22.8907 88.9695 24.96C88.9695 26.4747 89.3108 27.232 89.9935 27.232C90.5481 27.232 91.3268 26.496 92.3295 25.024C93.3321 23.552 94.1961 22.08 94.9215 20.608L96.0095 18.4H96.8735C96.7455 18.656 96.5748 19.008 96.3615 19.456C96.1695 19.8827 95.7748 20.6613 95.1775 21.792C94.5801 22.9013 94.0041 23.8827 93.4495 24.736C92.9161 25.5893 92.3081 26.368 91.6255 27.072C90.9641 27.7547 90.3455 28.096 89.7695 28.096C89.1935 28.096 88.6921 27.9147 88.2655 27.552C87.8601 27.168 87.6041 26.6347 87.4975 25.952C87.3695 25.248 87.3055 24.5333 87.3055 23.808C87.3055 22.1227 87.9028 18.9867 89.0975 14.4H87.6575C87.4868 14.4 87.3695 14.3573 87.3055 14.272C87.2415 14.1653 87.2095 14.08 87.2095 14.016ZM114.469 27.136C115.259 27.136 116.016 26.6347 116.741 25.632C118.043 23.7973 118.917 21.3227 119.365 18.208C118.683 17.8667 118.224 17.408 117.989 16.832C117.776 16.256 117.669 15.808 117.669 15.488C117.669 14.3787 118.032 13.824 118.757 13.824C119.653 13.824 120.101 14.816 120.101 16.8C120.101 17.0133 120.101 17.2373 120.101 17.472C120.421 17.5787 120.816 17.632 121.285 17.632C121.776 17.632 122.213 17.4293 122.597 17.024C122.981 16.6187 123.173 16.2453 123.173 15.904C123.173 15.8187 123.216 15.7653 123.301 15.744C123.408 15.7013 123.515 15.7013 123.621 15.744C123.728 15.7867 123.781 15.8507 123.781 15.936C123.781 16.5547 123.515 17.1413 122.981 17.696C122.469 18.2507 121.776 18.528 120.901 18.528C120.581 18.528 120.293 18.496 120.037 18.432C119.653 21.8027 118.661 24.48 117.061 26.464C116.229 27.488 115.344 28 114.405 28C112.912 28 111.909 27.2107 111.397 25.632C110.139 27.2107 108.933 28 107.781 28C106.16 28 105.157 27.4453 104.773 26.336C104.56 25.7387 104.453 25.0987 104.453 24.416C104.453 23.7333 104.528 22.976 104.677 22.144C104.997 20.5653 105.616 18.208 106.533 15.072C106.661 14.624 106.864 14.4 107.141 14.4C107.525 14.4 107.803 14.6667 107.973 15.2C108.059 15.456 108.101 15.7653 108.101 16.128C108.101 16.4693 108.048 16.832 107.941 17.216C107.835 17.6 107.707 18.0693 107.557 18.624C107.408 19.1787 107.28 19.648 107.173 20.032C107.067 20.416 106.939 20.8853 106.789 21.44C106.661 21.9947 106.555 22.4747 106.469 22.88C106.405 23.2853 106.341 23.7227 106.277 24.192C106.235 24.6613 106.235 25.0667 106.277 25.408C106.32 25.728 106.395 26.0267 106.501 26.304C106.715 26.8587 107.163 27.136 107.845 27.136C108.869 27.136 109.968 26.2933 111.141 24.608C111.056 24.096 111.013 23.5733 111.013 23.04C111.013 21.6107 111.28 20.0853 111.813 18.464C112.56 16.2453 113.317 15.136 114.085 15.136C114.704 15.136 115.013 15.616 115.013 16.576C115.013 16.96 114.96 17.408 114.853 17.92C114.533 19.7333 113.829 21.6107 112.741 23.552C112.933 25.9413 113.509 27.136 114.469 27.136ZM112.709 21.92C113.157 21.0027 113.531 20.096 113.829 19.2C114.128 18.304 114.288 17.7067 114.309 17.408C114.352 17.088 114.373 16.8213 114.373 16.608C114.373 16.3947 114.288 16.2667 114.117 16.224C113.755 16.224 113.435 16.8213 113.157 18.016C112.88 19.1893 112.731 20.4907 112.709 21.92ZM127.389 8.832C127.88 8.832 128.125 9.16267 128.125 9.824C128.125 10.4853 127.805 11.0187 127.165 11.424C126.845 11.6373 126.568 11.744 126.333 11.744C125.992 11.744 125.789 11.6373 125.725 11.424L125.693 11.328C125.885 11.328 126.024 11.1253 126.109 10.72C126.194 10.2933 126.322 9.87733 126.493 9.472C126.685 9.04533 126.984 8.832 127.389 8.832ZM125.341 27.232C125.896 27.232 126.674 26.496 127.677 25.024C128.68 23.552 129.544 22.08 130.269 20.608L131.357 18.4H132.221C132.093 18.656 131.922 19.008 131.709 19.456C131.517 19.8827 131.122 20.6613 130.525 21.792C129.928 22.9013 129.352 23.8827 128.797 24.736C128.264 25.5893 127.656 26.368 126.973 27.072C126.312 27.7547 125.736 28.096 125.245 28.096C123.666 28.096 122.877 27.072 122.877 25.024C122.877 23.488 123.314 20.992 124.189 17.536C124.274 17.1733 124.338 16.896 124.381 16.704C124.445 16.512 124.509 16.2667 124.573 15.968C124.637 15.648 124.701 15.36 124.765 15.104C124.872 14.656 125.064 14.432 125.341 14.432C125.725 14.432 126.002 14.7093 126.173 15.264C126.258 15.52 126.301 15.8293 126.301 16.192C126.301 16.5547 126.258 16.9387 126.173 17.344C126.088 17.728 125.949 18.304 125.757 19.072C125.565 19.84 125.416 20.4693 125.309 20.96C125.202 21.4507 125.085 22.048 124.957 22.752C124.722 23.9253 124.605 24.9707 124.605 25.888C124.605 26.784 124.85 27.232 125.341 27.232ZM130.413 14.016C130.413 13.7813 130.562 13.664 130.861 13.664H132.525C132.631 13.2373 132.77 12.704 132.941 12.064L133.389 10.4C133.517 9.90933 133.623 9.46133 133.709 9.056C133.815 8.65067 134.007 8.448 134.285 8.448C134.647 8.448 134.903 8.72533 135.053 9.28C135.117 9.51467 135.149 9.80267 135.149 10.144C135.149 10.4853 135.085 10.9227 134.957 11.456L134.349 13.664H136.333C136.525 13.664 136.653 13.728 136.717 13.856C136.802 13.984 136.802 14.112 136.717 14.24C136.653 14.3467 136.525 14.4 136.333 14.4H134.157C132.834 19.3707 132.173 22.8907 132.173 24.96C132.173 26.4747 132.514 27.232 133.197 27.232C133.751 27.232 134.53 26.496 135.533 25.024C136.535 23.552 137.399 22.08 138.125 20.608L139.213 18.4H140.077C139.949 18.656 139.778 19.008 139.565 19.456C139.373 19.8827 138.978 20.6613 138.381 21.792C137.783 22.9013 137.207 23.8827 136.653 24.736C136.119 25.5893 135.511 26.368 134.829 27.072C134.167 27.7547 133.549 28.096 132.973 28.096C132.397 28.096 131.895 27.9147 131.469 27.552C131.063 27.168 130.807 26.6347 130.701 25.952C130.573 25.248 130.509 24.5333 130.509 23.808C130.509 22.1227 131.106 18.9867 132.301 14.4H130.861C130.69 14.4 130.573 14.3573 130.509 14.272C130.445 14.1653 130.413 14.08 130.413 14.016ZM145.631 1.92C146.591 1.92 147.071 2.56 147.071 3.84C147.071 4.16 147.039 4.53333 146.975 4.96C146.655 6.98667 145.813 9.07733 144.447 11.232C143.466 12.7893 142.538 13.7707 141.663 14.176C141.237 16.48 140.863 18.5707 140.543 20.448H140.767C142.559 16.4587 144.373 14.464 146.207 14.464C146.869 14.464 147.381 14.6667 147.743 15.072C148.127 15.4773 148.319 16.032 148.319 16.736C148.319 17.44 148.042 18.9867 147.487 21.376C146.933 23.744 146.655 25.3973 146.655 26.336C146.655 27.7227 146.911 28.416 147.423 28.416C147.423 28.5653 147.327 28.7147 147.135 28.864C146.943 29.0133 146.719 29.088 146.463 29.088C145.226 29.088 144.607 28.1173 144.607 26.176C144.607 24.9813 144.917 23.2107 145.535 20.864C146.175 18.496 146.495 16.9707 146.495 16.288C146.495 15.6053 146.229 15.264 145.695 15.264C145.077 15.264 144.394 15.7867 143.647 16.832C142.901 17.8773 142.207 19.2107 141.567 20.832C140.501 23.4347 139.701 25.6107 139.167 27.36C139.039 27.7867 138.858 28 138.623 28C138.239 28 137.951 27.7653 137.759 27.296C137.653 27.04 137.599 26.7733 137.599 26.496C137.599 26.1973 137.685 25.664 137.855 24.896C138.026 24.1067 138.314 22.7307 138.719 20.768C139.103 18.8053 139.434 17.184 139.711 15.904C139.989 14.6027 140.309 13.152 140.671 11.552C141.034 9.93067 141.375 8.61867 141.695 7.616C142.037 6.592 142.421 5.61067 142.847 4.672C143.658 2.83733 144.586 1.92 145.631 1.92ZM146.335 3.904C146.335 3.22133 146.143 2.80533 145.759 2.656C144.501 2.656 143.199 6.176 141.855 13.216C142.709 12.6187 143.594 11.424 144.511 9.632C145.727 7.22133 146.335 5.312 146.335 3.904ZM170.798 7.36C172.163 4.05333 175.022 2.4 179.374 2.4C180.888 2.4 183.118 2.89067 186.062 3.872C187.043 2.50667 188.163 1.824 189.422 1.824C189.592 1.824 189.72 1.87733 189.806 1.984C189.891 2.09067 189.944 2.24 189.966 2.432C188.792 2.432 187.758 2.98667 186.862 4.096C187.544 4.26667 188.227 4.39467 188.91 4.48C189.635 3.008 190.371 2.272 191.118 2.272C191.459 2.272 191.662 2.37867 191.726 2.592L191.758 2.72C191.246 2.72 190.766 3.328 190.318 4.544C191.555 4.52267 192.398 4.032 192.846 3.072C192.995 2.77333 193.07 2.496 193.07 2.24C193.07 1.96267 192.974 1.73867 192.782 1.568C192.611 1.376 192.408 1.28 192.174 1.28C192.28 0.96 192.504 0.8 192.846 0.8C193.464 0.8 193.87 1.16267 194.062 1.888C194.126 2.10133 194.158 2.31467 194.158 2.528C194.158 3.168 193.848 3.79733 193.23 4.416C192.611 5.01333 191.683 5.312 190.446 5.312H190.062C189.443 7.33867 189.006 9.78133 188.75 12.64C188.515 15.4773 188.398 17.8453 188.398 19.744C188.398 24.544 188.824 26.944 189.678 26.944C190.04 26.944 190.488 26.08 191.022 24.352C191.555 22.624 192.152 20.5333 192.814 18.08C193.496 15.6267 194.243 13.1733 195.054 10.72C195.886 8.24533 196.91 6.144 198.126 4.416C199.342 2.688 200.643 1.824 202.03 1.824C202.328 1.824 202.574 1.89867 202.766 2.048C202.979 2.19733 203.128 2.432 203.214 2.752C201.635 2.752 200.195 3.648 198.894 5.44C197.614 7.21067 196.558 9.376 195.726 11.936C194.894 14.496 194.126 17.056 193.422 19.616C192.739 22.1547 192.046 24.32 191.342 26.112C190.659 27.8827 189.976 28.768 189.294 28.768C188.227 28.768 187.438 27.8933 186.926 26.144C186.414 24.3947 186.158 22.3893 186.158 20.128C186.158 17.5253 186.382 14.816 186.83 12C187.299 9.16267 187.886 6.89067 188.59 5.184C187.822 5.056 187.096 4.896 186.414 4.704C185.219 6.53867 184.078 9.93067 182.99 14.88C182.563 16.8213 181.987 18.848 181.262 20.96C180.536 23.072 179.726 24.928 178.83 26.528C177.955 28.128 176.739 29.4507 175.182 30.496C173.646 31.5413 171.854 32.064 169.806 32.064C166.67 32.064 164.387 30.944 162.958 28.704C162.168 27.4453 161.774 26.0907 161.774 24.64C161.774 24.0427 161.838 23.4347 161.966 22.816C162.414 20.7467 163.427 19.2747 165.006 18.4C165.838 17.9307 166.766 17.696 167.79 17.696C169.987 17.696 171.47 18.5493 172.238 20.256C172.558 20.96 172.718 21.6853 172.718 22.432C172.718 23.1573 172.568 23.8933 172.27 24.64C171.544 26.432 170.36 27.328 168.718 27.328C168.462 27.328 168.248 27.2747 168.078 27.168C167.907 27.04 167.779 26.8587 167.694 26.624C168.27 26.624 168.814 26.4747 169.326 26.176C170.179 25.664 170.84 24.736 171.31 23.392C171.459 22.944 171.534 22.5813 171.534 22.304C171.534 22.0053 171.512 21.6747 171.47 21.312C171.427 20.928 171.288 20.4907 171.054 20C170.819 19.5093 170.414 19.1147 169.838 18.816C169.262 18.5173 168.579 18.368 167.79 18.368C165.763 18.368 164.27 19.264 163.31 21.056C162.755 22.08 162.478 23.0507 162.478 23.968C162.478 24.8853 162.574 25.7067 162.766 26.432C163.32 28.4587 164.483 29.856 166.254 30.624C167.086 30.9867 168.003 31.168 169.006 31.168C170.84 31.168 172.483 30.6667 173.934 29.664C175.384 28.6613 176.558 27.4027 177.454 25.888C178.35 24.352 179.192 22.56 179.982 20.512C180.792 18.464 181.443 16.5013 181.934 14.624C183.214 9.86667 184.462 6.48533 185.678 4.48C185.571 4.45867 185.283 4.37333 184.814 4.224C184.366 4.07467 184.056 3.97867 183.886 3.936C183.736 3.89333 183.448 3.81867 183.022 3.712C182.616 3.60533 182.296 3.53067 182.062 3.488C181.827 3.44533 181.528 3.392 181.166 3.328C180.526 3.22133 179.822 3.168 179.054 3.168C176.28 3.168 174.232 4.21333 172.91 6.304C172.142 7.47733 171.758 8.69333 171.758 9.952C171.758 10.3147 171.8 10.688 171.886 11.072C172.12 12.4587 172.739 13.2907 173.742 13.568C173.934 13.632 174.136 13.664 174.35 13.664C174.222 14.1333 173.87 14.368 173.294 14.368C171.992 14.368 171.075 13.6747 170.542 12.288C170.286 11.6267 170.158 10.8907 170.158 10.08C170.158 9.26933 170.371 8.36267 170.798 7.36ZM202.272 8.832C202.762 8.832 203.008 9.16267 203.008 9.824C203.008 10.4853 202.688 11.0187 202.048 11.424C201.728 11.6373 201.45 11.744 201.216 11.744C200.874 11.744 200.672 11.6373 200.608 11.424L200.576 11.328C200.768 11.328 200.906 11.1253 200.992 10.72C201.077 10.2933 201.205 9.87733 201.376 9.472C201.568 9.04533 201.866 8.832 202.272 8.832ZM200.224 27.232C200.778 27.232 201.557 26.496 202.56 25.024C203.562 23.552 204.426 22.08 205.152 20.608L206.24 18.4H207.104C206.976 18.656 206.805 19.008 206.592 19.456C206.4 19.8827 206.005 20.6613 205.408 21.792C204.81 22.9013 204.234 23.8827 203.68 24.736C203.146 25.5893 202.538 26.368 201.856 27.072C201.194 27.7547 200.618 28.096 200.128 28.096C198.549 28.096 197.76 27.072 197.76 25.024C197.76 23.488 198.197 20.992 199.072 17.536C199.157 17.1733 199.221 16.896 199.264 16.704C199.328 16.512 199.392 16.2667 199.456 15.968C199.52 15.648 199.584 15.36 199.648 15.104C199.754 14.656 199.946 14.432 200.224 14.432C200.608 14.432 200.885 14.7093 201.056 15.264C201.141 15.52 201.184 15.8293 201.184 16.192C201.184 16.5547 201.141 16.9387 201.056 17.344C200.97 17.728 200.832 18.304 200.64 19.072C200.448 19.84 200.298 20.4693 200.192 20.96C200.085 21.4507 199.968 22.048 199.84 22.752C199.605 23.9253 199.488 24.9707 199.488 25.888C199.488 26.784 199.733 27.232 200.224 27.232ZM207.087 28.032C205.402 28.032 204.559 26.7627 204.559 24.224C204.559 22.752 204.943 21.1413 205.711 19.392C206.778 17.024 208.133 15.4773 209.775 14.752C210.351 14.5173 210.927 14.4 211.503 14.4C212.101 14.4 212.57 14.5707 212.911 14.912C213.253 15.2533 213.423 15.6373 213.423 16.064C213.423 16.256 213.317 16.352 213.103 16.352C212.911 16.3307 212.815 16.224 212.815 16.032C212.815 15.84 212.709 15.6693 212.495 15.52C212.303 15.3493 212.015 15.264 211.631 15.264C210.287 15.264 209.071 16.4693 207.983 18.88C206.959 21.12 206.447 23.2427 206.447 25.248C206.447 26.4853 206.714 27.104 207.247 27.104C207.802 27.104 208.463 26.6453 209.231 25.728C210.021 24.7893 210.746 23.7013 211.407 22.464C212.837 19.8613 213.679 18.1867 213.935 17.44C214.191 16.6933 214.469 16.32 214.767 16.32C215.301 16.32 215.567 16.768 215.567 17.664C215.567 17.9413 215.535 18.2613 215.471 18.624C214.767 22.0373 214.383 24.0107 214.319 24.544C214.277 25.0773 214.255 25.4613 214.255 25.696C214.255 26.72 214.501 27.232 214.991 27.232C215.546 27.232 216.325 26.496 217.327 25.024C218.33 23.552 219.194 22.08 219.919 20.608L221.007 18.4H221.871C221.743 18.656 221.573 19.008 221.359 19.456C221.167 19.8827 220.773 20.6613 220.175 21.792C219.578 22.9013 219.002 23.8827 218.447 24.736C217.914 25.5893 217.306 26.368 216.623 27.072C215.962 27.7547 215.386 28.096 214.895 28.096C213.317 28.096 212.527 26.944 212.527 24.64C212.527 23.872 212.613 22.976 212.783 21.952H212.559C210.383 26.0053 208.559 28.032 207.087 28.032ZM220.477 28C219.88 28 219.581 27.5413 219.581 26.624C219.581 26.1333 220.178 22.56 221.373 15.904C221.437 15.456 221.629 15.232 221.949 15.232C222.333 15.232 222.621 15.5093 222.813 16.064C222.92 16.3627 222.973 16.6933 222.973 17.056C222.973 17.3973 222.93 17.7707 222.845 18.176L222.333 20.736H222.525C224.445 16.4267 226.28 14.272 228.029 14.272C228.712 14.272 229.234 14.4853 229.597 14.912C229.96 15.3173 230.141 15.8827 230.141 16.608C230.141 17.3333 229.853 18.9013 229.277 21.312C228.701 23.7227 228.413 25.3973 228.413 26.336C228.413 27.7227 228.669 28.416 229.181 28.416C229.181 28.5653 229.085 28.7147 228.893 28.864C228.701 29.0133 228.477 29.088 228.221 29.088C226.984 29.088 226.365 28.1173 226.365 26.176C226.365 24.9813 226.685 23.1787 227.325 20.768C227.986 18.336 228.317 16.7893 228.317 16.128C228.317 15.4453 228.05 15.104 227.517 15.104C226.749 15.104 225.821 16.1067 224.733 18.112C223.666 20.1173 222.802 22.0373 222.141 23.872C221.501 25.6853 221.128 26.8267 221.021 27.296C220.936 27.7653 220.754 28 220.477 28Z" fill="#FCAC38"/>
</svg>
