<svg width="138" height="23" viewBox="0 0 138 23" fill="none" xmlns="http://www.w3.org/2000/svg">
<path d="M0.90625 22.5V0.681818H10.3239C11.9432 0.681818 13.3601 1.00142 14.5746 1.64062C15.7891 2.27983 16.7337 3.17827 17.4084 4.33594C18.0831 5.49361 18.4205 6.84659 18.4205 8.39489C18.4205 9.95739 18.0724 11.3104 17.3764 12.4538C16.6875 13.5973 15.718 14.478 14.468 15.0959C13.2251 15.7138 11.7727 16.0227 10.1108 16.0227H4.4858V11.4205H8.91761C9.61364 11.4205 10.2067 11.2997 10.6967 11.0582C11.1939 10.8097 11.5739 10.4581 11.8366 10.0036C12.1065 9.54901 12.2415 9.01278 12.2415 8.39489C12.2415 7.76989 12.1065 7.23722 11.8366 6.79688C11.5739 6.34943 11.1939 6.00852 10.6967 5.77415C10.2067 5.53267 9.61364 5.41193 8.91761 5.41193H6.82955V22.5H0.90625ZM20.5938 22.5V0.681818H30.0114C31.6307 0.681818 33.0476 0.976562 34.2621 1.56605C35.4766 2.15554 36.4212 3.00426 37.0959 4.11222C37.7706 5.22017 38.108 6.54829 38.108 8.09659C38.108 9.65909 37.7599 10.9766 37.0639 12.049C36.375 13.1214 35.4055 13.9311 34.1555 14.478C32.9126 15.0249 31.4602 15.2983 29.7983 15.2983H24.1733V10.696H28.6051C29.3011 10.696 29.8942 10.6108 30.3842 10.4403C30.8814 10.2628 31.2614 9.98224 31.5241 9.59872C31.794 9.2152 31.929 8.71449 31.929 8.09659C31.929 7.47159 31.794 6.96378 31.5241 6.57315C31.2614 6.17543 30.8814 5.88423 30.3842 5.69957C29.8942 5.50781 29.3011 5.41193 28.6051 5.41193H26.517V22.5H20.5938ZM33.3778 12.4858L38.8324 22.5H32.3977L27.071 12.4858H33.3778ZM61.7692 11.5909C61.7692 14.0199 61.2969 16.0689 60.3523 17.7379C59.4077 19.3999 58.1328 20.6605 56.5277 21.5199C54.9226 22.3722 53.1328 22.7983 51.1584 22.7983C49.1697 22.7983 47.3729 22.3686 45.7678 21.5092C44.1697 20.6428 42.8984 19.3786 41.9538 17.7166C41.0163 16.0476 40.5476 14.0057 40.5476 11.5909C40.5476 9.16193 41.0163 7.11648 41.9538 5.45455C42.8984 3.78551 44.1697 2.52486 45.7678 1.67258C47.3729 0.813209 49.1697 0.383522 51.1584 0.383522C53.1328 0.383522 54.9226 0.813209 56.5277 1.67258C58.1328 2.52486 59.4077 3.78551 60.3523 5.45455C61.2969 7.11648 61.7692 9.16193 61.7692 11.5909ZM55.6754 11.5909C55.6754 10.2841 55.5014 9.18324 55.1534 8.28835C54.8125 7.38636 54.3047 6.70454 53.63 6.2429C52.9624 5.77415 52.1385 5.53977 51.1584 5.53977C50.1783 5.53977 49.3509 5.77415 48.6761 6.2429C48.0085 6.70454 47.5007 7.38636 47.1527 8.28835C46.8118 9.18324 46.6413 10.2841 46.6413 11.5909C46.6413 12.8977 46.8118 14.0021 47.1527 14.9041C47.5007 15.799 48.0085 16.4808 48.6761 16.9496C49.3509 17.4112 50.1783 17.642 51.1584 17.642C52.1385 17.642 52.9624 17.4112 53.63 16.9496C54.3047 16.4808 54.8125 15.799 55.1534 14.9041C55.5014 14.0021 55.6754 12.8977 55.6754 11.5909ZM83.3876 0.681818V22.5H78.4444L70.5609 11.0369H70.4331V22.5H64.5098V0.681818H69.5382L77.2939 12.1023H77.4643V0.681818H83.3876ZM92.1127 0.681818V22.5H86.1895V0.681818H92.1127ZM100.588 22.5H94.1955L101.397 0.681818H109.494L116.695 22.5H110.303L105.531 6.69034H105.36L100.588 22.5ZM99.3944 13.892H111.411V18.3239H99.3944V13.892ZM137.675 0.681818V22.5H132.732L124.848 11.0369H124.72V22.5H118.797V0.681818H123.825L131.581 12.1023H131.751V0.681818H137.675Z" fill="#2E424D"/>
</svg>
